<?xml version="1.0" standalone="no"?>
<!DOCTYPE svg PUBLIC "-//W3C//DTD SVG 1.1//EN" "http://www.w3.org/Graphics/SVG/1.1/DTD/svg11.dtd" >
<svg xmlns="http://www.w3.org/2000/svg" xmlns:xlink="http://www.w3.org/1999/xlink" version="1.1">
<metadata></metadata>
<defs>
<font id="dk_lemon_yellow_sunregular" horiz-adv-x="780" >
<font-face units-per-em="2048" ascent="1638" descent="-410" />
<missing-glyph horiz-adv-x="614" />
<glyph horiz-adv-x="0" />
<glyph horiz-adv-x="682" />
<glyph unicode=" "  horiz-adv-x="614" />
<glyph unicode="&#x09;" horiz-adv-x="614" />
<glyph unicode="&#xa0;" horiz-adv-x="614" />
<glyph unicode="!" horiz-adv-x="419" d="M102 1616q9 24 19.5 32.5t34.5 8.5q62 0 69 -41q13 -202 13 -207q0 -212 22.5 -546.5t22.5 -547.5q0 -15 -0.5 -23t-4 -19t-12 -16t-22.5 -5q-19 0 -32.5 9.5t-20 21t-11 33t-5 32.5l-1.5 33v10q-10 169 -18.5 401t-19.5 425t-34 399zM156 90q0 20 24.5 41t44.5 21 q41 0 66.5 -29t25.5 -72q0 -51 -81 -51q-38 0 -59 23.5t-21 66.5z" />
<glyph unicode="&#x22;" horiz-adv-x="565" d="M102 1577q0 41 45 41q21 0 46.5 -8.5t25.5 -26.5v-606q0 -17 -14 -36t-33 -19q-25 0 -47 22q-23 340 -23 633zM338 1591q0 47 49 47q21 0 48.5 -10t27.5 -29v-692q0 -21 -14.5 -42t-34.5 -21q-29 0 -52 26q-24 405 -24 721z" />
<glyph unicode="$" horiz-adv-x="688" d="M102 1370q0 80 39 168t107 121q-15 131 -15 211q0 18 46 18q17 0 41 -4t24 -12v-199q76 -12 142.5 -61.5t66.5 -114.5q0 -31 -12 -46t-41 -15q-22 0 -37 12.5t-24.5 31t-21 36.5t-33 30.5t-52.5 12.5q-113 0 -113 -218q0 -72 30 -146.5t67.5 -127.5t89.5 -126.5 t79 -123.5q66 -123 89 -272t-11 -271q-23 -73 -70 -139.5t-108 -95.5v-221q0 -7 -13 -15t-30 -8q-25 0 -45 10q-18 130 -23 222q-43 10 -75.5 43.5t-50 79t-25.5 92t-8 92.5q0 26 27.5 46.5t52.5 12.5q27 -8 37 -43.5t8.5 -75.5t12.5 -82.5t48 -62.5h12q41 0 71.5 25.5 t46 65t23 78t7.5 73.5q0 216 -55 340q-25 57 -68 127t-81.5 129t-74.5 123.5t-58 136t-22 143.5z" />
<glyph unicode="'" horiz-adv-x="329" d="M102 1591q0 47 50 47q21 0 48 -10t27 -29v-692q0 -21 -14.5 -42t-34.5 -21q-28 0 -51 26q-25 421 -25 721z" />
<glyph unicode="(" horiz-adv-x="638" d="M102 881q0 200 48 387.5t157 316.5q2 2 18 21t22.5 25.5t20.5 18.5t27 16.5t27 4.5q45 0 45 -51q0 -9 -37.5 -61t-80.5 -113.5t-54 -89.5q-49 -125 -67.5 -251.5t-18.5 -281.5q0 -291 74 -469q43 -95 108 -168q67 -67 72 -71q9 -8 30.5 -18.5t32.5 -22.5t11 -33 q0 -6 -2 -10.5t-7 -7l-9 -4.5t-11.5 -2.5t-11 -0.5h-11.5h-8q-33 0 -64 16.5t-48.5 33.5t-45.5 49q-217 244 -217 766z" />
<glyph unicode=")" horiz-adv-x="638" d="M102 41q0 21 11 33t32.5 22.5t30.5 18.5q5 4 72 71q65 73 108 168q74 178 74 469q0 155 -18.5 281.5t-67.5 251.5q-11 28 -54 89.5t-80.5 113.5t-37.5 61q0 51 45 51q14 0 27 -4.5t27 -16.5t20.5 -18.5t22.5 -25.5t18 -21q109 -129 157 -316.5t48 -387.5 q0 -520 -218 -766q-29 -33 -45.5 -49.5t-47.5 -33t-64 -16.5h-8h-11.5t-11 0.5t-11.5 2.5l-9 4.5t-7 7t-2 10.5z" />
<glyph unicode="," horiz-adv-x="331" d="M102 66q0 51 52 51q33 0 54 -19t21 -51q0 -22 -4.5 -49t-9.5 -44.5t-14.5 -50t-12.5 -42.5q-6 -29 -32 -29q-6 0 -11 1t-8 2.5t-5.5 5t-3.5 5.5t-2 7.5t-1.5 7.5t-1 9t-0.5 9q-1 21 -11 88.5t-10 98.5z" />
<glyph unicode="-" horiz-adv-x="1167" d="M102 772q0 46 35 51q120 -3 343 5t311 8h227q28 0 37.5 -16.5t9.5 -45.5q0 -14 -7 -22.5t-21 -11t-26 -2.5t-29 1.5t-24 1.5l-647 -10l-151 -24h-6q-25 0 -38.5 19.5t-13.5 45.5z" />
<glyph unicode="." horiz-adv-x="366" d="M102 115q0 19 25 40t45 21q41 0 66.5 -28.5t25.5 -71.5q0 -51 -82 -51q-38 0 -59 23.5t-21 66.5z" />
<glyph unicode="/" horiz-adv-x="751" d="M102 35q0 1 1 11t1 11q303 1004 439 1563l4 28q4 29 8 33q19 2 27 2q67 0 67 -71q0 -54 -15 -113t-42 -134t-37 -112q-38 -130 -108 -386.5t-129.5 -460.5t-118.5 -383q-9 -35 -35 -35q-33 0 -47.5 10t-14.5 37z" />
<glyph unicode="0" horiz-adv-x="854" d="M102 973q0 95 4.5 135t22.5 139l4 21q76 393 260 393q75 0 132 -26.5t90.5 -66.5t57 -103.5t34 -119t18.5 -131.5q27 -277 27 -321q0 -20 -10.5 -187.5t-16.5 -242.5q-5 -55 -15.5 -107.5t-33 -108.5t-53 -97.5t-78 -68t-105.5 -26.5q-50 0 -94 25t-74.5 67t-51.5 87 t-34 94q-48 169 -66 313.5t-18 331.5zM211 930q0 -37 4 -100t13.5 -154t28 -180t43 -168t63.5 -127.5t86 -48.5q33 0 62.5 38t48 96.5t28.5 100t16 76.5l12 106q8 68 11 118.5t3.5 79t0.5 114.5q0 145 -29 374q-6 48 -17 94t-33 99.5t-61 86t-90 32.5q-25 0 -57 -59.5 t-50 -110.5t-28 -88q-37 -119 -53 -310l-1 -14q0 -14 -0.5 -30.5t-0.5 -24.5z" />
<glyph unicode="1" horiz-adv-x="344" d="M102 53l2 23q0 122 15 444v1096q4 14 13 21.5t17 8.5t23 1q27 0 45.5 -15.5t24.5 -42.5v-540l-27 -1041q-17 -28 -63 -28q-21 0 -35.5 26t-14.5 47z" />
<glyph unicode="2" horiz-adv-x="731" d="M102 88q2 15 107 306q268 737 280 966q6 119 -51 119h-8q-79 -10 -123.5 -24.5t-83.5 -39.5t-57 -33q-26 -11 -40.5 1t-14.5 44t35.5 63t86 52.5t98.5 35.5t79 17q96 9 150 -40.5t54 -145.5q0 -106 -24.5 -223t-65.5 -232.5t-84 -225t-90.5 -240.5t-75.5 -240l-14 -58 v-10l285 23h8q37 0 59.5 -26.5t13 -55t-50.5 -33.5l-421 -51q-35 0 -43.5 10t-8.5 41z" />
<glyph unicode="3" horiz-adv-x="747" d="M102 141q0 22 17 35.5t41 13.5q22 0 56 -22.5t58 -22.5q62 0 111 31.5t76 80.5t45 109t18.5 118t-4.5 106q-12 74 -36 134.5t-53 98.5t-62 67t-63 47t-54.5 32t-39.5 28t-15 29q0 4 4 16q9 20 51 64t85 87.5t78.5 107t35.5 122.5q0 56 -45.5 83.5t-106.5 27.5 q-22 0 -48 -4t-44.5 -8t-20.5 -4q-21 0 -45 28t-24 49q0 52 131 52h8q61 0 114.5 -12t101 -38t75.5 -73t28 -111q0 -96 -69.5 -203t-161.5 -170q50 -31 95 -71t89 -95.5t75 -130.5t42 -159q4 -40 4 -66q0 -65 -15 -132.5t-46.5 -130t-75 -111t-105 -78t-131.5 -29.5 q-38 0 -74 7.5t-68 32.5t-32 64z" />
<glyph unicode="4" horiz-adv-x="858" d="M102 494q0 3 6.5 27.5t6.5 27.5q17 73 30 166q2 24 45 422.5t50 478.5q0 1 1.5 11t3.5 18.5t5 18.5t9.5 16t14.5 6q47 0 70 -18.5t23 -61.5v-45q-28 -288 -127 -1012q3 0 16 -1l12 -1q70 0 224 28q2 0 6 1.5t6 1.5v290q0 29 47 29q42 0 61.5 -24.5t20 -63.5t-3.5 -80 t-2.5 -80.5t16.5 -58.5q11 -12 31.5 -16.5t37.5 -4t30.5 -11t13.5 -38.5q0 -47 -109 -67h-4v-430q0 -9 -19.5 -19t-29.5 -10q-52 0 -62 29q-13 75 -13 217.5t-15 212.5l-3 3q-3 4 -5.5 6.5t-3.5 2.5q-21 -2 -147 -21.5t-183 -19.5q-20 0 -40 24t-20 46z" />
<glyph unicode="5" horiz-adv-x="811" d="M102 1640q0 60 43 60h387q26 0 43 -23t17 -47q0 -19 -2 -26t-10.5 -11t-30.5 -4h-293q-5 0 -7.5 -2.5t-3.5 -7t-1.5 -8t0 -9t0.5 -6.5l6 -217q71 10 129 6.5t102.5 -11t78.5 -26.5t57.5 -40.5t40.5 -52t26.5 -62t15.5 -70.5q0 -22 2 -76t3.5 -106t1 -124.5t-3.5 -138 t-12 -139t-23.5 -134.5t-39 -118.5t-57 -97t-79 -63t-103.5 -23.5q-73 0 -130.5 55t-57.5 126q10 38 18.5 47.5t24.5 9.5q25 0 44.5 -17.5t29.5 -39t28 -39t41 -17.5q79 0 130 106t69 286t4 413q-3 47 -10.5 84t-22 62.5t-29.5 43t-39.5 27.5t-45 15.5t-53.5 6.5t-57 0.5 t-63 -2t-65 -1.5q-6 0 -22 -0.5t-23 0t-17 2.5t-15.5 8t-8.5 16v37q0 60 -8.5 175t-8.5 173z" />
<glyph unicode="6" horiz-adv-x="788" d="M102 504v35q18 273 49.5 467.5t102.5 433.5q1 4 9 33.5t12.5 42.5t14 41t19.5 42.5t23.5 32t30.5 25.5t36 8q29 0 40.5 -13.5t11.5 -45.5l-5 -33q-1 -1 -2.5 -4l-4 -8l-5.5 -11q-70 -159 -96 -250q0 -4 -2 -8q-70 -234 -72 -248q-24 -187 -24 -276v-49q90 69 174 69 q71 0 126 -37.5t85.5 -97t45.5 -124.5t15 -130q0 -82 -17 -151.5t-52.5 -127t-97.5 -90t-146 -32.5q-51 0 -92.5 19.5t-69 50t-48.5 75t-32 88.5t-18 97t-9 93t-2 83zM225 434q0 -246 99 -325q4 0 24.5 -1.5t24.5 -1.5q49 0 87 27t59 70.5t31.5 90.5t10.5 93q0 39 -5.5 82 t-19.5 93.5t-45 83t-75 32.5q-43 0 -88.5 -42t-74 -99t-28.5 -103z" />
<glyph unicode="7" horiz-adv-x="704" d="M102 1589q0 4 6 15.5t9 13.5q8 2 63 2t160.5 -8t159.5 -8q39 0 70.5 -21.5t31.5 -60.5v-15q-15 -90 -122 -583.5t-113 -552.5q-5 -25 -33.5 -174.5t-50.5 -227.5q-14 -16 -50 -16q-61 0 -61 65v19q168 767 293 1401v26q0 25 -14 29q-51 6 -153 14.5t-153 14.5 q-18 9 -30.5 28.5t-12.5 38.5z" />
<glyph unicode="8" horiz-adv-x="759" d="M102 346v23q0 14 0.5 42.5t1 52t0.5 25.5q1 21 9 53.5t21 67t35.5 58.5t47.5 24q22 0 39 -16t23 -39q0 -5 -3 -13t-4 -10q-39 -124 -45 -178q-4 -30 -4 -61q0 -264 150 -264q60 0 98 37.5t51 87t13 110.5q0 107 -28 218t-81 194q-24 38 -70 102.5t-77.5 112t-65 108.5 t-51 123.5t-17.5 124.5q0 70 25 138t79.5 117.5t127.5 49.5q77 0 128.5 -24.5t77.5 -71.5t36 -100.5t10 -126.5q0 -186 -133 -430q161 -299 161 -611q0 -120 -89 -194t-210 -74q-256 49 -256 344zM264 1337q0 -60 51.5 -199t90.5 -139q27 0 64.5 148.5t37.5 204.5 q0 32 -4.5 60.5t-16 59t-35.5 48.5t-59 18q-51 0 -90 -73t-39 -128z" />
<glyph unicode="9" horiz-adv-x="798" d="M102 1200q0 84 26 165.5t73 147.5t120 107t160 41q34 0 61.5 -14.5t46 -35t32.5 -56t21.5 -63t13.5 -71t8 -66t4 -61.5v-12q28 -348 28 -520q0 -13 -0.5 -39.5t-1 -48.5t-0.5 -23l-26 -282q-4 -41 -9 -75.5t-15.5 -78t-27 -76.5t-40 -62t-59 -45t-79.5 -16 q-43 0 -108.5 43.5t-65.5 85.5q0 24 15 36t38 12q29 0 71 -28t69 -28q62 0 90 170v6q14 77 20.5 172.5t7 151.5t0.5 174q0 23 -0.5 72.5t-0.5 88.5l-1 40q0 18 -15.5 161.5t-25.5 217.5q0 1 -1 4.5t-1 5.5q-11 90 -31 117q-16 22 -40 22q-71 0 -127.5 -67.5t-82.5 -149.5 t-26 -149q0 -34 4.5 -66t16 -68.5t37.5 -59t63 -22.5q4 0 41 7.5t41 7.5q2 2 35 2q30 0 38.5 -7t8.5 -36q0 -27 -20.5 -45t-50.5 -25t-57 -9.5t-48 -0.5q-64 4 -111.5 38.5t-72 87.5t-35.5 108t-11 114z" />
<glyph unicode=":" horiz-adv-x="366" d="M102 115q0 19 25 40t45 21q41 0 66.5 -28.5t25.5 -71.5q0 -51 -82 -51q-38 0 -59 23.5t-21 66.5zM102 1159q0 20 25 41t45 21q41 0 66.5 -29t25.5 -72q0 -51 -82 -51q-38 0 -59 23.5t-21 66.5z" />
<glyph unicode=";" horiz-adv-x="366" d="M102 66q0 51 52 51q33 0 54 -19t21 -51q0 -22 -4.5 -49t-9.5 -44.5t-14.5 -50t-12.5 -42.5q-6 -29 -32 -29q-6 0 -11 1t-8 2.5t-5.5 5t-3.5 5.5t-2 7.5t-1.5 7.5t-1 9t-0.5 9q-1 21 -11 88.5t-10 98.5zM102 1159q0 20 25 41t45 21q41 0 66.5 -29t25.5 -72q0 -51 -82 -51 q-38 0 -59 23.5t-21 66.5z" />
<glyph unicode="?" horiz-adv-x="733" d="M102 1335q0 101 96.5 178.5t194.5 77.5q99 0 168.5 -57t69.5 -154q0 -67 -24 -135.5t-58 -127.5t-68 -117.5t-58 -127t-24 -135.5v-405q0 -29 -47 -29q-60 0 -76 29v215q0 15 -0.5 63t0 68t2 62t5 67.5t9.5 61t16 65.5t24 59q18 40 64.5 117t73 141t26.5 129 q0 50 -21 76.5t-72 26.5q-38 0 -70 -21t-53.5 -51.5t-41.5 -60.5t-43 -51t-48 -21q-22 0 -33.5 16.5t-11.5 40.5zM276 109v34q17 15 54 15q53 0 68.5 -21.5t15.5 -77.5q0 -3 -1 -26t-1 -27q-1 -6 -5.5 -9.5t-11 -4.5t-11.5 -1t-11.5 0.5t-7.5 0.5q-52 0 -70.5 29t-18.5 88z " />
<glyph unicode="@" horiz-adv-x="1234" d="M104 711q-3 80 3 164t24 177t46.5 177t74.5 161.5t104 133.5t139.5 89.5t176.5 33.5q88 0 160.5 -38t121.5 -103t85 -144.5t56 -170t29 -171t9 -156.5q0 -46 -1.5 -82.5t-7 -88t-15.5 -90.5t-28.5 -80.5t-44.5 -69t-65 -45t-88 -17.5q-61 0 -106.5 35.5t-57.5 95.5 q-89 -51 -205 -51q-102 0 -151.5 45t-49.5 143q0 83 66 175.5t149 113.5q36 9 59 11t56.5 -0.5t56.5 -2.5q0 4 4 36t3 38q-8 58 -42.5 103t-89.5 51q-27 3 -51 -10t-41 -34.5t-33.5 -43.5t-35.5 -38t-39 -16q-49 0 -49 56q0 67 86 124.5t159 57.5q65 0 115 -29.5t78.5 -78.5 t43.5 -105.5t17 -118.5q1 -38 1 -171t-1 -173q2 -24 4.5 -38.5t9.5 -37t21 -34t35 -11.5l12 2q74 64 97.5 157t23.5 220q0 56 -6 121t-20 146t-41.5 153.5t-64.5 134.5t-94.5 98.5t-127.5 36.5q-125 0 -168 -24q-297 -164 -297 -797q0 -82 13.5 -167.5t46.5 -175.5 t80.5 -159.5t123.5 -114t168 -44.5q76 0 124.5 20.5t94.5 77.5q8 10 32 56t51 74t61 24q5 -2 19 -22t13 -26q-3 -31 -30 -79.5t-50 -75.5q-122 -142 -327 -142q-87 0 -163 33.5t-132 91.5t-100 131.5t-71.5 156.5t-42 164t-16.5 157zM422 651q0 -46 21 -65t69 -19 q99 0 153 65t54 167v30q-37 23 -94 28t-97 -15q-45 -26 -75.5 -82.5t-30.5 -108.5z" />
<glyph unicode="A" d="M104 4l91 1528q4 67 26.5 98t50 25.5t54 -39t39.5 -84.5q37 -150 89 -395t224 -1082q0 -23 -16.5 -38.5t-40.5 -11t-41 35.5l-74 369l-277 -41q-24 -142 -34 -365q-2 -23 -25 -30t-45 2.5t-21 27.5zM229 467l256 37l-200 911q-48 -743 -52 -837q-4 -28 -4 -111z" />
<glyph unicode="B" horiz-adv-x="872" d="M102 1636q0 26 24.5 42t53.5 14q61 -4 113.5 -16t100.5 -36.5t81.5 -58.5t53.5 -84.5t20 -112.5q0 -74 -9 -110.5t-30.5 -64.5t-79.5 -81q77 -35 137 -90.5t98 -121t62 -145.5t33.5 -158t9.5 -164q0 -153 -100 -265t-254 -155l-51 -13q-32 -6 -55 -6h-10q-26 2 -69 19 q-35 21 -56.5 343t-34.5 689.5t-25 433.5q-13 76 -13 141zM217 1575q0 -195 4 -277q0 -46 10 -116q6 -2 35 -2q74 0 119 54t45 128q0 100 -56 156.5t-157 56.5zM244 1057q0 -5 1 -37t1 -37q8 -144 27 -425.5t26 -436.5h12q167 0 254.5 98.5t87.5 263.5q0 85 -12.5 163.5 t-42.5 154.5t-75.5 132t-117 90t-161.5 34z" />
<glyph unicode="C" horiz-adv-x="876" d="M105 790q2 66 8 130q3 68 15 145.5t42 171t72 167t112 123.5t156 50h14q71 -3 126 -40.5t55 -106.5q0 -46 -35 -46q-23 1 -42.5 14.5t-31.5 30t-33.5 32t-46.5 18.5l-4 1q-4 1 -8 1q-45 0 -89.5 -44t-78.5 -118.5t-62 -171.5t-41 -205q-13 -106 -17 -214q-1 -18 -1 -36 q-1 -88 15 -170q18 -98 49.5 -174.5t89 -123.5t133.5 -50h10q41 0 66.5 19.5t37 48t22 56.5t30 47.5t51.5 19.5h6q22 0 35.5 -12.5t13.5 -33.5q-1 -17 -4.5 -26t-11.5 -23t-15 -30q-71 -152 -229 -152h-18q-82 4 -147 38.5t-106.5 87.5t-71 125.5t-43.5 146.5t-20 156 q-4 60 -4 112q0 18 1 36z" />
<glyph unicode="D" horiz-adv-x="763" d="M102 104q2 230 4 324q3 148 27 776q1 18 4 186t4 187l2 12q1 23 30 34t60 11h9q420 -18 420 -747q0 -16 -1.5 -45.5t-1.5 -42.5q-18 -703 -469 -703q-47 0 -88 8zM211 186q16 -2 22 -2q54 0 99 25.5t75.5 65t55 96t38.5 110.5t24 116.5t14 106t6 87.5q1 43 3 100 q1 15 0 31q0 44 -5 94q-7 68 -16 135.5t-31.5 132t-52.5 115t-77.5 83.5t-107.5 38z" />
<glyph unicode="E" horiz-adv-x="653" d="M102 1470v105q124 12 201 12q21 -1 39 -1q82 -4 103.5 -15t21.5 -37q0 -12 -7.5 -29.5t-17.5 -21.5h-223q-14 0 -14 -17q0 -96 5.5 -191.5t14.5 -213t13 -195.5q14 -4 62 -4q12 0 25 -1q39 -1 85 1q62 2 65 2q40 -1 64 -41q12 -21 12 -38q0 -15 -9 -26q-13 -16 -44 -16 h-260l4 -479q5 -1 18 -2q24 0 78 4q31 2 59 3q47 -1 89 -7q64 -10 65 -49q0 -47 -39 -53h-10q-121 -10 -202 -10q-165 0 -167 40l-2 101v405q0 147 -14.5 387.5t-14.5 386.5z" />
<glyph unicode="F" horiz-adv-x="591" d="M102 1602q0 14 14.5 24t43 15t50 7t56.5 3t43 2q14 0 40 1.5t42 2.5t36.5 -2t32.5 -11t20.5 -25t8.5 -42q0 -7 -8.5 -12t-76.5 -12t-195 -7l27 -401l186 2q22 0 37.5 -22.5t15.5 -43.5q0 -25 -48 -33q-35 -6 -73 -7q-13 0 -27 1q-20 1 -36 1q-28 0 -49 -3l6 -118 q3 -63 5 -112t3.5 -102t2 -80.5t1 -87t0.5 -80.5v-102v-112q0 -22 -13 -36.5t-34 -14.5q-49 0 -59 26q0 191 -13 565q-3 77 -21 378t-18 438z" />
<glyph unicode="G" horiz-adv-x="866" d="M102 901q0 71 9 146t31 161t67 155t108 99q39 19 101 22q12 1 24 1q50 0 98 -11q60 -12 103 -50.5t43 -96.5q0 -51 -45 -51q-24 0 -48.5 17t-42.5 38t-48.5 38t-65.5 17h-8q-54 -3 -95.5 -36.5t-65 -81t-38.5 -111t-19.5 -116t-4.5 -105.5v-41q1 -25 5 -112.5t6 -118.5 t7.5 -95.5t14 -115.5t20.5 -107q17 -84 65 -141.5t130 -57.5h10q53 3 91.5 31.5t56 70t29.5 91.5q10 46 10 88v8q-1 45 -1 82l-16 303q-22 0 -85 -7q-42 -4 -73 -4q-14 0 -26 1q-8 5 -14 22t-8.5 29t-2.5 15q0 13 8 22t23 14.5t35 8.5t44 4t51.5 1.5t55.5 0t57 0.5 q13 -3 22.5 -11t15.5 -23t9.5 -28.5t5.5 -39t3 -42.5t2 -50t2 -52v-20q7 -54 7 -117q0 -34 -2 -71q-6 -106 -22 -199t-80 -159t-169 -71h-41q-10 -1 -19 -1q-69 0 -123 33q-61 37 -100 107t-63.5 180.5t-34 239.5t-9.5 297z" />
<glyph unicode="H" horiz-adv-x="763" d="M102 1577q0 38 11 58t43 20q14 0 43.5 -8.5t29.5 -20.5l2 -874q40 -5 157.5 -8t148.5 -7v86q0 145 -8.5 397t-8.5 369q0 66 35 66q28 0 52.5 -13t27.5 -40l27 -1471q0 -26 -20.5 -44.5t-49.5 -18.5h-10q-9 1 -23 21t-18 32q2 77 2 149q0 204 -15 359q-85 18 -173 18 q-60 0 -122 -8v-530q0 -12 -19 -20.5t-32 -8.5q-20 0 -36 11t-19 30z" />
<glyph unicode="I" horiz-adv-x="415" d="M104 1552q1 24 27.5 29.5t53 -8.5t28.5 -37l90 -1249q10 -97 9 -109q-3 -45 -68 -45q-21 0 -34 12.5t-17.5 27t-8.5 38.5l-51 899q-3 48 -12 139t-14 165q-4 52 -4 100q0 19 1 38z" />
<glyph unicode="J" horiz-adv-x="681" d="M104 174v12q5 35 49 35h9q17 -2 48.5 -22.5t53.5 -20.5q36 0 64.5 48t36.5 91q21 93 34.5 189.5t21 211.5t11 190t7 219t5.5 204q5 215 13 277q1 4 2.5 12t2.5 12t2.5 10.5t4 9.5t6.5 6.5t9 5t12 1.5q82 -9 82 -66q-20 -190 -35.5 -594t-40.5 -575q-8 -59 -14.5 -96.5 t-24 -92t-40 -87t-62 -56.5t-91.5 -24q-18 0 -28 2q-33 4 -61 13t-52.5 31t-24.5 54z" />
<glyph unicode="K" horiz-adv-x="864" d="M102 1657q-1 21 26 32.5t57 -0.5t36 -51l41 -819q84 157 129 303q31 135 54.5 288.5t27.5 176.5q1 2 6 20.5t12.5 26.5t22.5 8q42 -7 56 -25t14 -56q0 -90 -16.5 -183t-54.5 -203.5t-66 -181t-85 -202.5l-22 -54q92 -64 164 -138.5t116 -139.5t78 -142t49.5 -132 t30.5 -124q4 -21 0 -35t-15.5 -19.5t-20 -7t-21.5 -1.5q-21 0 -36.5 26t-29 71t-29.5 101t-44.5 119.5t-67 123.5t-104.5 117t-150 95q0 -61 7 -211t9 -236v-21q0 -79 -10 -183q-2 -14 -18 -14q-50 0 -76 41v155q0 914 -70 1475z" />
<glyph unicode="L" horiz-adv-x="684" d="M102 1368v260q13 31 41 31q23 0 42 -23t26 -49q5 -132 11 -433.5t16 -528.5t28 -435q164 43 246 43q70 0 70 -51q0 -23 -8.5 -37t-32.5 -22q-38 -13 -120 -22.5t-114 -18.5q-8 -2 -38.5 -14.5t-49.5 -12.5t-39.5 18t-23.5 38q-14 142 -18.5 410.5t-8.5 340.5z" />
<glyph unicode="M" horiz-adv-x="1054" d="M102 115l23 934q14 567 88 567q6 0 8 -2t18.5 -9.5t31.5 -21.5t20 -37q0 -1 19.5 -81t26 -105t28.5 -99t39 -115.5t44 -97t56 -96.5q19 16 133 222l10 16q119 215 176 369q17 36 60 36q31 -2 69 -30q-8 -246 -10 -706.5t-6 -659.5l-2 -99q-20 -49 -66 -49q-23 0 -47 29 l2 121q2 87 2 244q1 131 -1 312q-1 95 -1 176q0 259 6 380q-95 -171 -141 -269q-14 -24 -61 -116.5t-60 -122.5q-8 -17 -24 -33t-37.5 -19.5t-36.5 31.5q-205 465 -213 465q-21 -173 -33 -385.5t-14.5 -350t-5.5 -388.5q-3 -17 -16 -28t-27 -11q-10 0 -31 9.5t-27 19.5z" />
<glyph unicode="N" horiz-adv-x="909" d="M102 59l52 1473q18 34 44 32.5t43 -17.5t31 -36q38 -110 154.5 -488t202.5 -589l20 287q23 265 23 649v90q6 25 28.5 38t49.5 13q41 0 57 -26q-42 -497 -68 -1385l-2 -26q-4 -9 -20.5 -24t-28.5 -15q-13 0 -31.5 13.5t-25.5 25.5q-54 164 -190 548.5t-203 594.5 l-15 -1168q-17 -37 -38.5 -51t-39 -7t-30 26t-13.5 42z" />
<glyph unicode="O" horiz-adv-x="921" d="M104 946v45q0 77 5 146q7 89 30 176t60 148.5t99.5 99.5t145.5 38q82 0 151.5 -62.5t114.5 -165.5t73 -235t34 -270q2 -38 2 -75q0 -100 -12 -197q-16 -134 -52.5 -240t-99.5 -174.5t-145 -75.5q-4 0 -12.5 -1t-12.5 -1q-126 0 -201.5 73t-113.5 218q-7 31 -15 74.5 t-20 127t-20.5 166.5t-10.5 185zM220 1033q-2 -40 -1 -79q-1 -75 5 -148q10 -112 21.5 -194t22.5 -125q7 -31 22 -70.5t38.5 -86t57 -79.5t69.5 -36h24q39 3 72 33t52.5 65.5t37.5 90.5t24.5 85.5t14.5 73.5q9 45 14.5 126t5.5 186t-14 211.5t-40 197t-77 147t-120 56.5h-17 q-73 -7 -121.5 -73t-67 -166t-23.5 -215z" />
<glyph unicode="P" horiz-adv-x="708" d="M102 35v8q12 1378 15 1583q13 18 42.5 29.5t53.5 11.5q127 0 218 -66.5t133 -170t42 -230.5q0 -144 -41.5 -254.5t-119.5 -190.5t-203 -153l-15 -125q-1 -17 -14 -446q-8 -27 -18.5 -36t-36.5 -9q-56 0 -56 49zM227 739q15 0 39.5 13.5t30.5 19.5q97 77 133.5 173 t36.5 231q0 366 -197 366q-22 0 -28 -16l-15 -699v-88z" />
<glyph unicode="Q" horiz-adv-x="1003" d="M102 926q0 45 2 97t9.5 129.5t19.5 148t34 144t51 127.5t73.5 88t97.5 34q69 0 125.5 -36t93 -92t63.5 -137t41.5 -157t23 -167t10.5 -152t2 -126q0 -297 -58 -587q73 -98 197 -209q14 -11 14 -43q-15 -45 -72 -45q-26 0 -26 4l-168 166q-31 -41 -78.5 -69t-95.5 -28 q-54 0 -100.5 24t-80.5 64t-61.5 98t-45.5 119t-31.5 133.5t-21 135t-12 131.5t-5.5 114.5t-1 90.5zM227 836q0 -36 3 -90.5t10 -138t22.5 -161.5t37 -148.5t56.5 -113.5t78 -43t74 16.5t31 55.5q0 10 -2 12t-23 22.5t-38.5 38t-22.5 23.5q-5 5 -13 13.5t-11 11.5t-7.5 8.5 t-5.5 8.5l-3 9t-2.5 11.5t-0.5 13.5q0 51 65 51q15 0 28.5 -4t27.5 -16t20.5 -18t23 -25t19.5 -23q41 219 41 539q0 46 -5 119t-20 178.5t-38.5 191.5t-65.5 143q-36 49 -81 49q-8 0 -15 -1q-54 -9 -93 -78.5t-56.5 -167t-24.5 -174.5t-7 -139q0 -2 -0.5 -36.5t-1 -76 t-0.5 -61.5z" />
<glyph unicode="R" d="M102 1653v8q0 32 28.5 45.5t66.5 13.5q83 0 148.5 -23t109 -63t72 -96t41 -119.5t12.5 -136.5q0 -136 -50.5 -230t-152.5 -167q84 -37 144.5 -114t91 -175t44 -191t13.5 -188q0 -51 -60 -51q-15 0 -21 1.5t-12.5 8.5t-11.5 23q-3 44 -6.5 82t-13 101t-22 113.5t-35 107 t-50.5 95t-69 63.5t-90 25q-1 0 -10 -1t-11 -1q-13 -122 -13 -332q1 -8 1 -16v-34q0 -198 -6 -316q-20 -28 -55 -28q-1 0 -1 -1q-34 0 -53 29q1 92 1 405.5t-1 405.5q0 197 -14 533q0 50 -15 223zM205 1581l39 -635q102 20 163.5 116.5t61.5 201.5q0 46 -10 99t-31 107.5 t-60.5 90.5t-91.5 36q-71 0 -71 -16z" />
<glyph unicode="S" horiz-adv-x="733" d="M102 231q0 2 1 7.5t1 7.5q1 19 20.5 34t41.5 15q25 -4 43 -23t26.5 -39.5t27.5 -39.5t46 -23q21 -3 39 -3q24 -1 42 5q34 10 54 39.5t30 61t18 79.5q7 42 8 83v10q0 36 -6 72q-8 41 -15.5 73.5t-26.5 75.5t-31.5 69.5t-40 73t-41.5 68.5t-46 73q-47 74 -65 138 q-10 37 -10 80q0 31 5 65q49 272 277 271q29 0 45 -1q47 -5 69 -21t15 -55q-4 -23 -24 -31t-47 -5.5t-59.5 -2t-62 -16.5t-54.5 -53.5t-36 -108.5q-5 -28 -6 -51.5t3.5 -45.5t9.5 -39t17 -39.5t21 -37.5t26.5 -43t28.5 -47q29 -50 46 -80t40.5 -77t36.5 -80t27 -78.5t19 -84 t5 -85t-8 -92.5q-23 -133 -84 -200t-180 -67q-25 0 -49 3q-64 11 -130.5 59t-66.5 106z" />
<glyph unicode="T" horiz-adv-x="825" d="M109 1588q14 22 61 34q53 -1 150 -2t177 -3t154 -7q54 -5 68 -46q10 -34 -13 -55q-11 -10 -28 -10l-223 4q-1 -1 -15 -915q0 -40 -4 -164.5t-4 -175.5v-27q-8 -29 -33 -36t-50 8t-32 43q0 5 5.5 316.5t5.5 399.5q0 553 -4 557l-164 7q-33 9 -49 29.5t-2 42.5z" />
<glyph unicode="U" horiz-adv-x="911" d="M104 539v36q0 130 5 375q1 49 3.5 161t4 175.5t7 156.5t13.5 171q24 24 51 24q26 0 42 -13t20.5 -32.5t6 -42.5t-0.5 -43v-12q-2 -103 -16.5 -305.5t-16.5 -304.5q0 -16 -4.5 -81t-6 -120t-1.5 -132t9.5 -137t25.5 -115t49 -85.5t78 -30.5q35 0 68 31t56 76.5t37.5 84.5 t20.5 68q123 579 123 1096v45q0 21 21 31t46 10q26 0 45 -18.5t19 -42.5l-2 -31q-35 -549 -100 -920l-5 -26q-1 -2 -2.5 -9t-3.5 -12q-8 -45 -13.5 -74.5t-19.5 -85t-28.5 -94t-39.5 -86t-53.5 -76.5t-69 -49t-87.5 -20q-54 0 -97.5 16.5t-72 42.5t-50 65.5t-33 77.5t-18 87 t-8.5 86t-2 82z" />
<glyph unicode="V" horiz-adv-x="931" d="M102 1556q0 38 66 43q18 0 31.5 -6t21 -12.5t14 -24.5t8.5 -27.5t7 -35.5q94 -501 244 -1141l206 1164q3 20 22 35.5t42 17.5q62 0 65 -53l-229 -1174q-1 -2 -18.5 -86t-38 -148.5t-37.5 -64.5q-4 0 -6 -2q-3 1 -14.5 2.5t-16 3t-12 7.5t-11.5 16q-46 185 -156 693 t-186 781z" />
<glyph unicode="W" horiz-adv-x="1218" d="M104 1563v18q0 19 2 31t13 22.5t31 10.5q75 0 75 -43q13 -91 78 -494q21 -124 50 -353.5t44 -326.5q19 62 66 269t57 266q4 25 37.5 49t64 24.5t42.5 -35.5l86 -387q10 -40 24 -122.5t23 -116.5q6 34 172 1028q2 13 5 48t7.5 59t13.5 51.5t27.5 42t46.5 14.5q23 0 35 -15 t12 -38q0 -27 -2 -31q-6 -36 -50.5 -277t-58 -320.5t-44 -263t-49.5 -323t-35 -282.5q-20 -54 -60 -54q-30 0 -47 25l-176 780l-143 -684q-2 -11 -4 -34t-4.5 -35t-9 -26.5t-20.5 -21t-36 -6.5q-24 0 -36 8.5t-24 32.5l-53 535q-14 152 -43.5 340t-51 300t-65.5 335z" />
<glyph unicode="X" horiz-adv-x="884" d="M102 1589q0 29 10 36t42 7q16 0 29.5 -5t24.5 -15.5t19.5 -20t17 -27.5t12.5 -27.5t12 -29.5t10 -26q9 -27 71.5 -203.5t73.5 -210.5l121 389q1 6 5.5 28t8.5 38.5t10.5 40.5t15.5 40.5t20 31.5t26 20t33 0q21 -5 30.5 -25t8.5 -41.5t-1 -40.5l-118 -346 q-17 -55 -48.5 -165t-31.5 -115v-80q0 -1 16.5 -53.5t39.5 -122t36 -105.5q12 -35 83.5 -227t102.5 -295q-12 -25 -23 -33t-34 -8q-33 0 -49 16l-12 25q-3 8 -33.5 93t-34.5 95q-25 67 -69.5 194.5t-63.5 180.5q-4 15 -14.5 40.5t-12.5 25.5l-225 -639q-6 -2 -39 -2h-11 h-13.5t-12.5 1t-12.5 3t-9 5.5t-7.5 9t-2 13.5v9q1 2 13.5 32t13.5 35q20 57 225 692v29v14t-1 13t-1 10.5t-2 11.5t-2.5 10.5t-3.5 12.5t-3.5 13t-5 16t-5.5 18q-2 5 -55.5 154.5t-65.5 179.5q-5 15 -39.5 100t-40.5 100q-4 10 -11.5 25t-12.5 27.5t-5 27.5z" />
<glyph unicode="Y" horiz-adv-x="802" d="M117 1407q-15 32 -15 56q0 27 20 42q26 20 55 4q16 -9 22 -26l233 -492l137 543q4 27 37 37q13 4 26 4q19 0 37 -9q31 -14 31 -46v-9l-202 -622l71 -832q0 -45 -55 -45q-53 0 -61 39q-10 86 -22.5 271.5t-28.5 335.5t-42 251q-194 387 -243 498z" />
<glyph unicode="Z" horiz-adv-x="778" d="M105 1541.5q4 29.5 42 41.5l529 -39q-73 -242 -209.5 -716.5t-165.5 -573.5h38q53 0 132 2q111 2 152 2q30 0 41 -28t-3 -56t-45 -29q-140 -9 -393 -16h-4q-30 0 -49.5 24.5t-19.5 57.5q32 79 65 171.5t55 158t58 186t49.5 167t55.5 195.5t52 183q5 26 21 83t20 87 q-66 1 -189 10.5t-179 11.5q-20 0 -38.5 24t-14.5 53.5z" />
<glyph unicode="_" horiz-adv-x="1302" d="M109 -2.5q-13 24.5 2 48.5t49 26q166 1 497.5 14t497.5 14q28 -9 38.5 -31.5t-1.5 -43.5t-41 -27q-166 -1 -497.5 -14.5t-497.5 -14.5q-34 4 -47 28.5z" />
<glyph unicode="a" horiz-adv-x="817" d="M102 158l215 1489q7 28 13 44t22.5 34t40.5 18q45 0 64 -31l16 -43q56 -219 102 -488.5t68.5 -447t58.5 -497.5l13 -134q0 -1 -1 -2t-1 -2q-11 -32 -23 -43.5t-39 -11.5h-6q-33 0 -35 14l-51 389h-303l-12 -12l-35 -231q0 -3 -1.5 -19t-3 -26t-6 -25.5t-10 -25 t-16.5 -16.5t-25 -7q-18 0 -31.5 27.5t-13.5 46.5zM287 573l256 -6l-137 957z" />
<glyph unicode="b" horiz-adv-x="854" d="M102 1550v43q49 57 124 77q42 12 82 11q32 0 62 -7q68 -16 117.5 -75t49.5 -149q0 -157 -111 -281q174 -108 250 -247.5t76 -346.5q0 -111 -31 -208.5t-90 -172.5t-152.5 -118t-210.5 -43q-54 0 -71 30q-10 135 -23.5 466.5t-30.5 533.5zM221 1548l31 -338 q75 0 124.5 71.5t49.5 160.5q0 86 -62 116q-26 13 -56 13q-40 0 -87 -23zM258 1079q0 -344 47 -921q12 -2 37 -2q78 0 136 37t90.5 99.5t47.5 133t15 149.5q0 90 -21.5 175.5t-64 161t-117 121.5t-170.5 46z" />
<glyph unicode="c" horiz-adv-x="778" d="M102 876q6 135 35 259q16 69 39 134t61.5 132.5t85.5 117t113.5 81.5t143.5 32q35 0 65.5 -21.5t30.5 -54.5q0 -17 -9.5 -29t-22 -18t-32 -8.5t-32.5 -2.5t-31.5 0.5t-20.5 0.5h-12q-57 0 -106 -45t-81.5 -115t-55.5 -157t-33.5 -170.5t-10.5 -155.5q0 -113 6 -185.5 t25 -152.5t59.5 -142.5t106.5 -117.5q29 -25 72 -32q25 -4 47 -4q16 0 30 2q21 3 41 3q12 0 24 -1q30 -3 40 -21q13 -22 13 -39q0 -22 -19 -34q-34 -24 -94 -23q-134 3 -233 72.5t-151.5 178t-76.5 244.5q-19 107 -19 214z" />
<glyph unicode="d" horiz-adv-x="761" d="M102 68v348q2 132 2 585.5t-2 583.5v8q0 37 15 67.5t45 43.5h18q148 0 230 -74q78 -71 132 -171t79 -214t33 -221q5 -66 5 -134q0 -43 -2 -87q-4 -105 -15 -195.5t-32 -181.5t-55.5 -163t-81 -131t-113.5 -95.5t-149 -46.5q-17 -2 -31 -2q-32 0 -51 11q-27 16 -27 69z M217 330.5q0 -128.5 2 -221.5q73 11 131 63.5t93 124t58.5 160.5t32.5 168t9 153q0 49 -1 96t-7.5 131.5t-17.5 154.5t-33.5 150t-52.5 135t-77 91.5t-106 36.5h-15q-3 -88 -8.5 -383.5t-5.5 -378.5q0 -55 -1 -203.5t-1 -277z" />
<glyph unicode="e" horiz-adv-x="684" d="M102 1495q0 28 22 50t50 22h324q9 0 31 -16.5t24 -24.5q2 -4 2 -10q0 -28 -29 -44t-59 -16h-246l10 -680l222 33h10q57 0 57 -37q0 -29 -34 -52q-21 -14 -46 -18l-204 -30l-7 -535q18 -2 107 -2q33 0 76 4t68 6.5t50 0.5q24 -3 36 -17q14 -16 14 -42q0 -31 -112 -44 q-69 -8 -138 -8q-44 -1 -90 3q-114 8 -115 28z" />
<glyph unicode="f" horiz-adv-x="655" d="M104 1444v4q0 164 236 178q6 0 40 2t57 1t52.5 -6t46 -19.5t17.5 -38.5q0 -34 -55 -39q-4 0 -33 2t-47.5 2t-49.5 -1t-52 -6.5t-42 -14.5t-32 -26t-11 -40v-17q17 -276 33 -413q28 -4 63 -4q24 0 52 2q7 0 28 5t40 8t39 3t32 -10t12 -31q0 -43 -52.5 -60t-123.5 -20 t-84 -8q-2 -34 -2 -77q0 -111 16 -280q24 -235 25 -339v-8q0 -41 -24 -54.5t-50 1t-32 44.5q-25 201 -58.5 597.5t-40.5 662.5z" />
<glyph unicode="g" horiz-adv-x="862" d="M104 793v28q0 65 2.5 124.5t12 142t25 150.5t44 139.5t66.5 121.5t96 83.5t129 37.5l17 2q43 0 94.5 -15.5t92 -46.5t40.5 -67q0 -12 -6 -27q-12 -28 -28 -33t-37 8t-44 30t-56 35t-65 22h-10q-256 -34 -256 -619v-45l4 -223q2 -40 7.5 -82.5t16 -98t28.5 -103 t42.5 -89.5t61 -66t80.5 -24h8q139 8 162 381q14 129 14 196v21q-2 43 -39 54q-21 6 -44 6q-18 0 -36 -4q-24 -4 -46 -4q-18 0 -35 3q-37 7 -39 43q0 31 28.5 44.5t63.5 13.5l37 2q18 3 55.5 0.5t75 -7t66 -23.5t28.5 -48v-39q-1 -44 -10.5 -170t-12.5 -153 q-5 -53 -12 -93.5t-19.5 -91.5t-32.5 -88.5t-48.5 -71t-70.5 -52.5t-95 -21h-17q-65 0 -117 29t-86.5 74t-60 111t-39 127.5t-22 138t-10.5 128t-3 109.5z" />
<glyph unicode="h" horiz-adv-x="749" d="M102 39q0 37 2 243t2 242q0 96 8.5 615.5t8.5 527.5q16 16 57 16q33 0 64 -43q0 -97 -10 -338.5t-9 -347.5q0 -159 2 -186q5 -5 9.5 -8.5t10 -4.5t8.5 -1.5t11 0t10 0.5q156 0 232 -4q12 173 18 434q3 137 2 255q0 108 -2 201v11q0 22 15.5 33.5t38.5 11.5q18 0 37 -12.5 t30 -28.5q0 -47 -8 -219q-11 -344 -11 -605q0 -96 1 -180q3 -158 3 -276q0 -117 -3 -197q-6 -158 -35 -160q-26 -1 -41.5 12.5t-21.5 50t-7.5 66t-1.5 95.5q0 18 -5 202t-5 203h-293v-577q0 -26 -11.5 -41t-28.5 -17.5t-34 0.5t-29.5 11t-13.5 16z" />
<glyph unicode="i" horiz-adv-x="387" d="M102 39l56 1520q10 30 21.5 36.5t45.5 6.5q41 0 50.5 -17.5t9.5 -68.5q0 -3 -1 -19t-1 -18l-62 -1401q-2 -54 -49 -72q-36 -14 -59 6q-11 10 -11 27z" />
<glyph unicode="j" horiz-adv-x="686" d="M104 117q3 43 56 43h10q27 -1 40 -13t14 -25.5t11 -24.5t33 -11q40 0 70.5 68t48 179.5t29.5 246t17 276.5t7.5 260.5t4 209t4.5 112.5q3 21 3.5 50t2 40.5t12 24.5t33.5 22h8q51 -3 65.5 -26.5t16.5 -78.5l-23 -372q-32 -670 -83.5 -888t-223.5 -218h-16q-53 3 -96.5 37 t-43.5 88z" />
<glyph unicode="k" horiz-adv-x="825" d="M102 1616q0 26 16.5 42.5t41.5 16.5q58 0 61 -78l21 -684q216 433 274 635q3 10 8.5 35.5t10 39.5t13.5 31.5t24 25.5t36 8q13 0 25 -3.5t25 -14.5t13.5 -31t-7.5 -54l-332 -766l383 -710q17 -28 2 -60.5t-53 -32.5q-23 0 -33 4t-21 23q-34 61 -159 314t-205 376v-16 q0 -27 13 -283t13 -405q-11 -27 -37.5 -41.5t-49.5 -3.5t-25 49z" />
<glyph unicode="l" horiz-adv-x="714" d="M102 1608v14q0 22 15 37q12 4 39 4q24 0 32 -1t17.5 -10.5t15.5 -31.5q9 -36 11 -66q2 -22 1 -52v-24q0 -23 -0.5 -39.5t0.5 -27.5q2 -92 6.5 -305.5t7.5 -334t9 -298.5t16 -326h15q43 0 127.5 14.5t128.5 14.5q69 0 69 -49q0 -39 -41 -45l-415 -62q-1 0 -7.5 269 t-13 566.5t-6.5 361.5q0 23 -13.5 203t-13.5 188z" />
<glyph unicode="m" horiz-adv-x="1015" d="M104 143q0 12 2 43.5t4.5 109.5t5 212t3.5 404q0 135 0.5 293t-0.5 339q0 30 24.5 53t53.5 21.5t41 -33.5l249 -684q33 38 149.5 364t133.5 355q17 30 47 28.5t70 -28.5q1 0 4 -179.5t6 -413.5t4 -372q1 -77 6 -266.5t6 -290.5q0 -29 -17.5 -49t-45.5 -20q-24 0 -34 8 t-19 33q1 97 1 202q0 455 -28 1035l-221 -545q-3 -28 -54 -36q-16 -2 -29 -2q-26 0 -34 11q-8 9 -14 25q-9 29 -37.5 123.5t-42.5 138.5t-39 116.5t-49 131.5q-16 -169 -15 -557q-1 -13 -1 -25q0 -8 1 -15q0 -395 -26 -564q-25 -15 -64 -15q-16 0 -24.5 1.5t-12 9.5t-4 13.5 t-0.5 24.5z" />
<glyph unicode="n" horiz-adv-x="960" d="M102 66l25 1441v5q0 38 27 62q20 17 44 17q11 0 23 -4q38 -12 58 -67l417 -1133q10 439 31 795q2 33 3 114.5t5.5 138.5t16.5 109q0 16 12 19.5t41 3.5q37 -2 44.5 -9t6.5 -40q-3 -111 -22 -324t-23 -315q-25 -744 -25 -805q-12 -30 -46.5 -21t-47.5 37q-29 61 -471 1245 l-14 -1257q0 -28 -26.5 -39.5t-52.5 -2.5t-26 30z" />
<glyph unicode="o" horiz-adv-x="894" d="M102 918q0 69 2 124t10.5 135t23.5 141t43.5 127.5t67.5 110t99 71.5t135 28q87 -10 150 -80.5t93 -188.5q30 -116 48 -234q17 -111 17 -251v-16q-1 -149 -4.5 -233.5t-10.5 -182.5q-5 -49 -16.5 -100.5t-35 -108.5t-55 -100.5t-80.5 -72t-108 -28.5q-75 0 -135 36 t-98.5 91t-67.5 136.5t-43.5 155.5t-22.5 166t-10 150t-2 124zM219 926q0 -218 19 -371.5t55 -237t80 -119.5t102 -36q36 0 66 21.5t50.5 62.5t36 86.5t24.5 106.5t14.5 109t8 108t3 89t0.5 66v8q0 46 -4.5 110t-14 149.5t-28 166t-43 150.5t-63.5 112.5t-85 42.5 q-54 0 -98.5 -54t-69.5 -130.5t-38 -146t-13 -113.5q-2 -66 -2 -180z" />
<glyph unicode="p" horiz-adv-x="671" d="M102 -25v531q0 118 6 540.5t9 552.5q2 6 6 10.5t11 7t12.5 4.5t15.5 2.5t14.5 0.5h15h11.5q156 0 261 -117.5t105 -275.5q0 -167 -101.5 -330t-252.5 -233q-10 -165 -10 -226q-1 -52 -1 -226.5t1 -225.5q-16 -27 -64 -27q-20 0 -39 12zM211 805q29 0 43 14 q188 172 188 398q0 42 -14.5 92t-40.5 97t-69 78.5t-93 31.5z" />
<glyph unicode="q" horiz-adv-x="983" d="M102 756q0 116 7.5 215t28.5 214.5t65 218t110 179.5q47 57 103 79q37 14 72 14q19 0 37 -4q52 -12 98 -52q87 -146 132.5 -325.5t48.5 -366.5v-42q0 -163 -18 -314q-19 -170 -59 -343l143 -98q19 -35 -1 -56.5t-44 -21.5l-141 76q-74 -113 -198 -131q-19 -3 -37 -3 q-102 0 -183 85q-47 43 -82 131.5t-51.5 192.5t-23.5 191t-7 161zM217 704v-15q0 -113 15 -217q16 -111 42.5 -196t72.5 -135.5t104 -50.5h12q39 5 74.5 39t35.5 70q0 19 -17 34t-38 24t-38 24t-17 34q0 23 14 39q12 0 26 -3.5t24.5 -7.5t27.5 -13t25 -13.5t26.5 -16 t22.5 -13.5q39 207 53 387q5 75 5 153q0 110 -11 227q-19 199 -78 378q-43 127 -98 127q-6 2 -19 2q-48 0 -91 -50.5t-74 -135.5t-55 -195.5t-33.5 -232.5t-10.5 -243z" />
<glyph unicode="r" horiz-adv-x="684" d="M102 10v172q0 162 3 356.5t6.5 326.5t10 368t9.5 336q1 23 4 39.5t11.5 27t15.5 16t24 8t28.5 3t37.5 0.5h20q140 0 225 -83.5t85 -219.5v-23q0 -129 -40.5 -240t-133.5 -175q9 -9 34.5 -39.5t30.5 -40.5q41 -54 57.5 -148t19 -245.5t3.5 -161.5q0 -6 6 -59.5t6 -59.5 v-16q0 -39 -59 -39h-2q-17 0 -25 0.5t-18.5 7.5t-14.5 20q-2 64 -24 451q-3 36 -7 63.5t-14.5 62.5t-26.5 57.5t-43 38t-63 15.5h-32q-3 -13 -8 -58.5t-5 -59.5q-2 -14 -7.5 -267t-6.5 -381v-14.5v-15t-1 -13t-2.5 -13t-5 -10t-8 -9t-12 -4.5t-16.5 -2q-42 0 -62 28z M236 993q0 -18 26 -18q51 0 92 42.5t63.5 104t34 118.5t11.5 97q0 84 -41 151.5t-121 67.5q-51 0 -51 -53v-23q0 -90 -6 -236q-8 -166 -8 -251z" />
<glyph unicode="s" horiz-adv-x="688" d="M102 1370q0 45 13.5 96.5t38.5 99t67 78.5t92 31q77 0 158.5 -52.5t81.5 -125.5q0 -31 -12 -46t-41 -15q-22 0 -37 12.5t-24.5 31t-21 36.5t-33 30.5t-52.5 12.5q-113 0 -113 -218q0 -72 30 -146.5t67.5 -127.5t89.5 -126.5t79 -123.5q66 -123 89 -272q9 -60 9 -116 q0 -82 -20 -155q-18 -58 -51 -112.5t-86.5 -96.5t-112.5 -42q-54 0 -94.5 30.5t-62 79.5t-31.5 99.5t-10 101.5q0 26 27.5 46.5t52.5 12.5q27 -7 37 -43q9 -31 9 -66q-1 -5 -1 -10v-8q0 -36 13 -74q14 -42 48 -63h12q41 0 71.5 25.5t46 65t23 78t7.5 73.5q0 216 -55 340 q-25 57 -68 127t-81.5 129t-74.5 123.5t-58 136t-22 143.5z" />
<glyph unicode="t" horiz-adv-x="714" d="M102 1554q1 19 2 27.5t5.5 21t13 17t23 11t38 7t56.5 0.5q5 0 10 1q30 0 69 -3h173q120 -5 120 -67q0 -13 -13.5 -26t-27.5 -13h-172l39 -1301q0 -12 -20 -20t-33 -8t-33 8t-20 20l-41 1297q-55 -4 -94 -4q-29 0 -47 2q-46 5 -48 30z" />
<glyph unicode="u" horiz-adv-x="770" d="M104 1599v11q0 21 28 29.5t58 0.5t37 -28q7 -14 9 -124q2 -92 3 -214q-1 -24 -1 -50v-14q0 -146 10 -316q10 -178 29 -327t64.5 -248.5t111.5 -99.5q33 0 56 33t31 69t9 70q4 172 4 382q0 363 -12 839q7 24 18.5 30.5t40.5 6.5q62 0 64 -41q3 -112 3 -297q0 -111 -1 -248 t-1 -249q0 -188 3 -308q-1 -43 -1.5 -61t-3 -58t-6.5 -59.5t-12 -53t-18.5 -50.5t-27 -39t-37.5 -33t-49.5 -19t-63.5 -8q-14 0 -50 4q-147 18 -213 321q-51 237 -69 785l-8 264z" />
<glyph unicode="v" horiz-adv-x="847" d="M102 1669q10 13 47 24.5t48 0.5q7 -3 22.5 -18t16.5 -21l174 -1262q36 200 105 626.5t99 596.5q0 48 17 64t49 16q26 0 40.5 -7.5t24.5 -33.5q-25 -97 -47 -196t-45 -223t-34.5 -192t-37 -224t-32.5 -199l-80 -527q-10 -25 -23.5 -32t-39.5 -7q-15 0 -23 1t-17.5 7 t-13.5 19q-59 276 -133 816t-117 771z" />
<glyph unicode="w" horiz-adv-x="1165" d="M102 1516q0 28 30 42q20 9 41 8q11 0 23 -2q32 -8 37 -32q26 -122 54.5 -283t61.5 -363t48 -288l39 -225q15 55 27.5 122.5t18.5 113.5t16 125.5t14 111.5q3 24 22 40t46 19q6 1 12 1q34 0 47 -21l227 -566q12 424 74 1287q11 26 39 36.5t53 -1.5t29 -44q1 -9 1 -21 q0 -42 -11 -125q-14 -107 -15 -122q-16 -194 -25.5 -406.5t-17.5 -484.5t-14 -405q-8 -8 -14.5 -21t-14 -18.5t-26.5 -7.5h-15q-15 0 -25.5 4.5t-17 14.5t-9.5 19t-8 26.5t-9 27.5l-244 627q-14 -162 -52.5 -367.5t-45.5 -261.5q0 -1 -1 -3t-1 -3q-6 -25 -9 -34t-11 -24 t-20.5 -21.5t-31.5 -8.5q-23 -2 -30.5 1t-20.5 21l-27 135q-14 92 -51 343t-64.5 425.5t-58.5 341.5q-29 153 -68 256z" />
<glyph unicode="x" horiz-adv-x="956" d="M104 1520q0 41 70 41q43 0 66 -48q43 -95 168 -401l10 -25q0 -10 14 -24q18 65 70.5 290t75.5 294q6 16 43 16h4h10q63 0 65 -49q-19 -72 -194 -719q17 -49 85.5 -221t94.5 -232l150 -317q3 -6 6.5 -14t5 -11.5t3 -9.5t1.5 -12q0 -21 -22.5 -37t-47.5 -16q-30 0 -47 34 q-104 244 -208 493q-46 113 -57.5 137.5t-16.5 27.5q-36 -166 -150 -631q-13 -52 -59 -55h-8q-48 0 -48 37q0 15 11 61q24 88 192 745l-282 621q0 5 -3 15z" />
<glyph unicode="y" horiz-adv-x="890" d="M102 1495q3 35 50 35q65 0 86 -43q16 -45 78 -254t108 -311q9 7 63 125.5t102.5 233.5t45.5 116q4 10 9 30t10 33t13.5 27t22.5 21.5t35 7.5q20 -1 31.5 -3.5t20.5 -11t9 -24.5v-15q-34 -94 -149.5 -324.5t-149.5 -359.5l-36 -780q-2 -37 -58 -37h-12h-4q-13 1 -19.5 2.5 t-15.5 8t-12 18.5q0 3 1 12.5t1 17.5q2 42 10 235t14 344t6 187l-174 474q-6 13 -36 92.5t-35 93.5q-15 34 -15 49z" />
<glyph unicode="z" horiz-adv-x="763" d="M104 1548q-2 19 13 43.5t51 24.5q70 0 200.5 2t196.5 2q26 0 36 -9.5t13 -33.5l-237 -1403q31 0 101.5 13.5t103.5 13.5q30 0 55 -12t25 -42q0 -17 -14 -29.5t-38 -18.5t-45.5 -9t-46.5 -5t-31 -3q-26 -4 -60.5 -11.5t-59 -11.5t-50.5 -4q-24 0 -45.5 17t-25.5 43v10 q0 21 7 53t17.5 67t12.5 46q42 205 102.5 612t99.5 608h-301q-75 0 -80 37z" />
<glyph unicode="&#xa1;" horiz-adv-x="419" d="M102 1606q0 51 82 51q38 0 59 -23.5t21 -66.5q0 -20 -24.5 -41t-44.5 -21q-41 0 -67 29t-26 72zM137 1341q0 15 0.5 23t4 19t12 16.5t22.5 5.5q19 0 32.5 -9.5t20 -21t11 -33t5 -32.5l1.5 -33v-10q6 -102 23.5 -526.5t47.5 -698.5q-9 -24 -19 -32.5t-34 -8.5 q-62 0 -69 41q-13 202 -13 207q0 212 -22.5 546t-22.5 547z" />
<glyph unicode="&#xaa;" horiz-adv-x="710" d="M102 1290q0 70 64.5 149t146.5 97q36 7 59 8.5t55.5 -0.5t55.5 -2q0 3 3.5 31t2.5 33q-8 49 -42 87t-87 42q-27 3 -50 -8.5t-40 -29.5t-33 -36.5t-34.5 -31.5t-38.5 -13q-27 0 -38 11.5t-11 35.5q0 57 84.5 105.5t156.5 48.5q64 0 113 -25t77.5 -67t43 -89.5t16.5 -99.5 q2 -32 2 -145.5t-2 -147.5q-4 -64 -31 -99q-35 -43 -72 30q0 1 -1 2q-89 -46 -203 -46q-100 0 -148.5 38t-48.5 122zM209 1284q0 -39 21 -55.5t67 -16.5q98 0 151.5 55t53.5 142v27q-37 20 -93 24t-96 -14q-44 -23 -74 -71t-30 -91z" />
<glyph unicode="&#xab;" horiz-adv-x="1044" d="M111 756l403 270q32 13 54.5 -2.5t20.5 -43t-30 -46.5l-350 -213l321 -240q25 -23 25.5 -48t-23.5 -39.5t-55 -0.5l-352 269q-34 52 -14 94zM463 743l403 271q32 13 54.5 -2.5t20.5 -43t-30 -46.5l-350 -213l322 -240q20 -15 24 -36t-6 -35t-28 -21.5t-44 4.5l-352 268 q-34 52 -14 94z" />
<glyph unicode="&#xad;" horiz-adv-x="1167" d="M102 772q0 46 35 51q120 -3 343 5t311 8h227q28 0 37.5 -16.5t9.5 -45.5q0 -14 -7 -22.5t-21 -11t-26 -2.5t-29 1.5t-24 1.5l-647 -10l-151 -24h-6q-25 0 -38.5 19.5t-13.5 45.5z" />
<glyph unicode="&#xba;" horiz-adv-x="667" d="M105.5 1568.5q5.5 80.5 31 145.5t62.5 90q90 57 159 50.5t115.5 -65t69.5 -138t20.5 -170t-31.5 -160.5q-33 -78 -103 -116.5t-163 -12.5q-62 17 -102.5 78t-52 139.5t-6 159zM205 1479q1 -27 6 -56.5t16.5 -63.5t34 -55.5t53.5 -21.5q9 0 25 4q38 10 68.5 51.5t44 98.5 t13.5 115.5t-21.5 109.5t-61.5 74q-35 18 -62 16t-47 -24.5t-33 -52t-21 -65.5t-11.5 -65.5t-3.5 -52.5v-12z" />
<glyph unicode="&#xbb;" horiz-adv-x="1044" d="M103 968.5q-2 27.5 20.5 43t54.5 2.5l404 -271q20 -41 -15 -94l-352 -268q-31 -14 -55 0.5t-23.5 39.5t25.5 48l321 240l-350 213q-28 19 -30 46.5zM455 980.5q-2 27.5 20.5 43t54.5 2.5l404 -270q20 -42 -14 -94l-353 -269q-31 -14 -55 0.5t-23.5 39.5t25.5 48l322 240 l-351 213q-28 19 -30 46.5z" />
<glyph unicode="&#xbf;" horiz-adv-x="733" d="M102 201q0 67 24 135.5t58 127.5t68 117.5t58 127t24 135.5v405q0 29 47 29q60 0 76 -29v-215q0 -15 0.5 -63t0 -68t-2 -62t-5 -67.5t-9.5 -61t-16 -65.5t-24 -59q-17 -37 -49 -92.5t-55 -95.5t-41 -94.5t-18 -104.5t20.5 -76.5t71.5 -26.5q32 0 60 15t47 38t38 49.5 t34 49.5t35.5 38t41.5 15q22 0 33.5 -16.5t11.5 -40.5q0 -101 -96.5 -178.5t-194.5 -77.5q-99 0 -168.5 57t-69.5 154zM319 1522q0 3 1.5 26t1.5 27q1 6 5.5 9.5t11 4.5t11.5 1t11.5 -0.5t7.5 -0.5q52 0 70 -28t18 -88v-35q-17 -15 -54 -15q-53 0 -68.5 21.5t-15.5 77.5z " />
<glyph unicode="&#xc0;" d="M104 4l91 1528q4 67 26.5 98t50 25.5t54 -39t39.5 -84.5q37 -150 89 -395t224 -1082q0 -23 -16.5 -38.5t-40.5 -11t-41 35.5l-74 369l-277 -41q-24 -142 -34 -365q-2 -23 -25 -30t-45 2.5t-21 27.5zM109 1906v5v6q0 20 18 35.5t39 15.5q14 -6 18 -8l133 -86q1 -1 8 -5.5 t9.5 -6t9 -6t9 -7t7.5 -7t7 -8t5 -8.5t4 -10t1 -10q0 -20 -14.5 -33.5t-34.5 -13.5q-17 0 -29 10l-76 58l-104 65q-3 2 -5 4l-3 3t-1.5 3.5t-0.5 3.5zM229 467l256 37l-200 911q-48 -743 -52 -837q-4 -28 -4 -111z" />
<glyph unicode="&#xc1;" d="M104 4l91 1528q4 67 26.5 98t50 25.5t54 -39t39.5 -84.5q37 -150 89 -395t224 -1082q0 -23 -16.5 -38.5t-40.5 -11t-41 35.5l-74 369l-277 -41q-24 -142 -34 -365q-2 -23 -25 -30t-45 2.5t-21 27.5zM127 1843q0 5 1 9.5t2.5 8.5t5 8.5t5 7t6.5 7t7 6t8.5 6t8 5.5t8 5.5 t7.5 4.5l133 86l19 8q21 0 39 -15.5t18 -35.5v-6v-5t-0.5 -3.5t-1.5 -3.5l-3 -3t-5 -4l-104 -65l-76 -58q-12 -10 -29 -10q-20 0 -34.5 13.5t-14.5 33.5zM229 467l256 37l-200 911q-48 -743 -52 -837q-4 -28 -4 -111z" />
<glyph unicode="&#xc2;" d="M23 1726q0 15 2 17q19 36 81 103.5t72 80.5q4 4 15 23.5t23 33t24 13.5q6 0 12 -1.5t12 -4.5t10.5 -5.5t10 -9t8.5 -9t8.5 -10.5t7 -10t7.5 -10.5t6 -9.5q7 -9 40 -54t37 -52q3 -4 19.5 -22t31.5 -35.5t17 -20.5q10 -10 10 -31q0 -12 -7 -20.5t-19 -8.5q-11 0 -33 11 q-32 33 -85.5 100.5t-76.5 93.5q-13 -13 -54.5 -68t-79 -97t-54.5 -42q-19 0 -32 12.5t-13 32.5zM104 4l91 1528q4 67 26.5 98t50 25.5t54 -39t39.5 -84.5q37 -150 89 -395t224 -1082q0 -23 -16.5 -38.5t-40.5 -11t-41 35.5l-74 369l-277 -41q-24 -142 -34 -365 q-2 -23 -25 -30t-45 2.5t-21 27.5zM229 467l256 37l-200 911q-48 -743 -52 -837q-4 -28 -4 -111z" />
<glyph unicode="&#xc3;" d="M4 1792q0 53 44.5 101.5t96.5 48.5q39 0 75 -19.5t56.5 -43t39.5 -43t28 -19.5q34 0 49 15.5t15.5 33.5t7.5 33.5t26 15.5q56 0 56 -70q0 -55 -34 -84.5t-93 -29.5q-34 0 -62 13t-46 31t-33.5 36t-32 31t-33.5 13q-20 0 -34.5 -16.5t-22 -35.5t-18 -35.5t-23.5 -16.5 q-21 0 -41.5 11.5t-20.5 29.5zM104 4l91 1528q4 67 26.5 98t50 25.5t54 -39t39.5 -84.5q37 -150 89 -395t224 -1082q0 -23 -16.5 -38.5t-40.5 -11t-41 35.5l-74 369l-277 -41q-24 -142 -34 -365q-2 -23 -25 -30t-45 2.5t-21 27.5zM229 467l256 37l-200 911 q-48 -743 -52 -837q-4 -28 -4 -111z" />
<glyph unicode="&#xc4;" d="M18 1825q0 19 25 40t45 21q41 0 66.5 -28.5t25.5 -71.5q0 -51 -82 -51q-38 0 -59 23.5t-21 66.5zM104 4l91 1528q4 67 26.5 98t50 25.5t54 -39t39.5 -84.5q37 -150 89 -395t224 -1082q0 -23 -16.5 -38.5t-40.5 -11t-41 35.5l-74 369l-277 -41q-24 -142 -34 -365 q-2 -23 -25 -30t-45 2.5t-21 27.5zM229 467l256 37l-200 911q-48 -743 -52 -837q-4 -28 -4 -111zM289 1845q0 19 21.5 40.5t37.5 21.5q35 0 56.5 -29t21.5 -74q0 -32 -19 -42.5t-51 -10.5t-49.5 25t-17.5 69z" />
<glyph unicode="&#xc5;" d="M74 1774q0 98 49.5 154.5t146.5 56.5q68 0 112 -44.5t44 -113.5q0 -72 -28.5 -125.5t-84.5 -71.5q39 -45 52 -98q37 -150 89 -395t224 -1082q0 -23 -16.5 -38.5t-40.5 -11t-41 35.5l-74 369l-277 -41q-24 -142 -34 -365q-2 -23 -25 -30t-45 2.5t-21 27.5l91 1528 q3 60 22 92q-63 8 -103 47t-40 103zM152 1774q0 -33 21.5 -50.5t55.5 -17.5q53 0 83 32t30 85q0 34 -14.5 59t-46.5 25q-56 0 -92.5 -38.5t-36.5 -94.5zM229 467l256 37l-200 911q-48 -743 -52 -837q-4 -28 -4 -111z" />
<glyph unicode="&#xc6;" horiz-adv-x="1114" d="M102 4l91 1528q4 65 27.5 91t64.5 26q156 14 245 10.5t122.5 -16t33.5 -35.5q0 -12 -7 -30t-17 -22q-204 0 -306 -4l6 -20q39 -152 193 -893l23 -107q4 0 11.5 1t13.5 1.5t7 0.5q17 0 66 6.5t103.5 14.5t60.5 9h10q43 0 68 -31q24 -30 -2 -49q-12 -9 -33 -12l-285 -43 l66 -315h38v-11q13 -3 97 2.5t148.5 -4t64.5 -49.5q0 -47 -39 -53h-25q-253 -20 -327 4q-26 4 -43 37l-74 369l-277 -41q-24 -142 -34 -365q-3 -23 -25.5 -30.5t-44 2t-21.5 28.5zM227 467l256 37l-200 911q-48 -743 -52 -837q-4 -28 -4 -111z" />
<glyph unicode="&#xc7;" horiz-adv-x="876" d="M105 793.5q2 64.5 8 126.5q3 68 15 145.5t42 171t72 167t112 123.5t156 50h14q71 -3 126 -40.5t55 -106.5q0 -46 -35 -46q-23 1 -42.5 14.5t-31.5 30t-33.5 32t-46.5 18.5l-4 1q-4 1 -8 1q-45 0 -89.5 -44t-78.5 -118.5t-62 -171.5t-41 -204.5t-16.5 -215t14 -205.5 t49 -174.5t89 -123.5t133.5 -50h10q41 0 66.5 19.5t37 48t22 56.5t30 47.5t51.5 19.5h6q22 0 35.5 -12.5t13.5 -33.5q-1 -17 -4.5 -26t-11.5 -23t-15 -30q-71 -152 -229 -152h-18q-36 0 -74 10v-61q99 -9 150 -87q44 -66 24 -133q-21 -70 -103 -84q-37 -6 -81 1 q-21 0 -70 33t-49 55q0 45 29 45t54 -24.5t56 -24.5q90 0 90 63q0 26 -14 38t-35 13.5t-46 7.5t-46 17t-35 44.5t-14 88.5v45q-57 34 -100 91t-67 126.5t-39.5 143.5t-19 153.5t-1.5 144z" />
<glyph unicode="&#xc8;" horiz-adv-x="653" d="M102 1470v105q159 16 240.5 11.5t103 -16t21.5 -36.5q0 -12 -7.5 -29.5t-17.5 -21.5h-223q-14 0 -14 -17q0 -96 5.5 -191.5t14.5 -213t13 -195.5q14 -4 62 -4.5t110 1t65 1.5q40 -1 64 -41q23 -39 3 -64q-13 -16 -44 -16h-260l4 -479q13 -3 96.5 2.5t148 -4t64.5 -49.5 q0 -47 -39 -53h-10q-367 -29 -369 30l-2 101v405q0 147 -14.5 387.5t-14.5 386.5zM131 1916v3v4.5v5.5q0 20 18 35.5t39 15.5q15 -6 19 -8l133 -86q1 -1 9.5 -6t10.5 -6.5t9 -6.5t10 -8t8 -8.5t6.5 -9.5t3.5 -10t2 -12q0 -20 -14.5 -33.5t-34.5 -13.5q-16 0 -28 10l-76 57 l-105 66l-4.5 3t-2.5 2.5t-2 2.5t-1 3z" />
<glyph unicode="&#xc9;" horiz-adv-x="653" d="M102 1470v105q159 16 240.5 11.5t103 -16t21.5 -36.5q0 -12 -7.5 -29.5t-17.5 -21.5h-223q-14 0 -14 -17q0 -96 5.5 -191.5t14.5 -213t13 -195.5q14 -4 62 -4.5t110 1t65 1.5q40 -1 64 -41q23 -39 3 -64q-13 -16 -44 -16h-260l4 -479q13 -3 96.5 2.5t148 -4t64.5 -49.5 q0 -47 -39 -53h-10q-367 -29 -369 30l-2 101v405q0 147 -14.5 387.5t-14.5 386.5zM190 1819q0 7 1.5 13t6 12l7.5 10t11 9.5t11 7.5t12.5 8t10.5 7l133 86l18 8q21 0 39.5 -15.5t18.5 -35.5v-5q0 -6 -0.5 -8t-2.5 -5t-7 -6l-105 -66l-76 -57q-12 -10 -28 -10 q-21 0 -35.5 13.5t-14.5 33.5z" />
<glyph unicode="&#xca;" horiz-adv-x="653" d="M23 1731q0 14 2 16q19 36 81 103.5t72 80.5q4 4 15 23.5t23 33t24 13.5q6 0 12 -1.5t12 -4.5t10.5 -5.5t10 -9t8.5 -9t8.5 -10.5t7 -10t7.5 -10.5t6 -9.5q7 -9 40 -54t37 -52q3 -4 19.5 -22t31.5 -35.5t17 -20.5q10 -10 10 -31q0 -12 -7 -20t-19 -8q-13 0 -33 10 q-32 33 -85.5 100.5t-76.5 93.5q-13 -13 -54.5 -68t-79 -96.5t-54.5 -41.5q-19 0 -32 12.5t-13 32.5zM102 1470v105q159 16 240.5 11.5t103 -16t21.5 -36.5q0 -12 -7.5 -29.5t-17.5 -21.5h-223q-14 0 -14 -17q0 -96 5.5 -191.5t14.5 -213t13 -195.5q14 -4 62 -4.5t110 1 t65 1.5q40 -1 64 -41q23 -39 3 -64q-13 -16 -44 -16h-260l4 -479q13 -3 96.5 2.5t148 -4t64.5 -49.5q0 -47 -39 -53h-10q-367 -29 -369 30l-2 101v405q0 147 -14.5 387.5t-14.5 386.5z" />
<glyph unicode="&#xcb;" horiz-adv-x="653" d="M49 1821q0 19 25 40t45 21q41 0 66.5 -28.5t25.5 -71.5q0 -51 -82 -51q-38 0 -59 23.5t-21 66.5zM102 1470v105q159 16 240.5 11.5t103 -16t21.5 -36.5q0 -12 -7.5 -29.5t-17.5 -21.5h-223q-14 0 -14 -17q0 -96 5.5 -191.5t14.5 -213t13 -195.5q14 -4 62 -4.5t110 1 t65 1.5q40 -1 64 -41q23 -39 3 -64q-13 -16 -44 -16h-260l4 -479q13 -3 96.5 2.5t148 -4t64.5 -49.5q0 -47 -39 -53h-10q-367 -29 -369 30l-2 101v405q0 147 -14.5 387.5t-14.5 386.5zM319 1841q0 19 22 40.5t38 21.5q35 0 56.5 -29t21.5 -74q0 -32 -19 -42.5t-51 -10.5 t-50 25t-18 69z" />
<glyph unicode="&#xcc;" horiz-adv-x="415" d="M-6 1859v5v6q0 20 18 35.5t39 15.5q15 -6 19 -8l133 -86q42 -27 52 -43q7 -12 7 -25q0 -20 -14.5 -33.5t-34.5 -13.5q-17 0 -29 10l-75 58l-105 65q-3 2 -5 4l-3 3t-1.5 3.5t-0.5 3.5zM104 1552q1 24 27.5 29.5t53 -8.5t28.5 -37l90 -1249q10 -97 10 -109q-3 -45 -69 -45 q-21 0 -34 12.5t-17.5 27t-8.5 38.5l-51 899q-3 48 -12 139t-14 164.5t-3 138.5z" />
<glyph unicode="&#xcd;" horiz-adv-x="415" d="M-4 1780q0 6 2 12t3.5 10t6.5 9.5t8 8.5t10 8t9 6.5t10.5 6.5t9.5 6l133 86l19 9q21 0 39 -16t18 -36v-5q0 -6 -0.5 -8t-2.5 -5t-7 -6l-104 -66l-76 -57q-12 -10 -29 -10q-20 0 -34.5 13.5t-14.5 33.5zM104 1552q1 24 27.5 29.5t53 -8.5t28.5 -37l90 -1249 q10 -97 10 -109q-3 -45 -69 -45q-21 0 -34 12.5t-17.5 27t-8.5 38.5l-51 899q-3 48 -12 139t-14 164.5t-3 138.5z" />
<glyph unicode="&#xce;" horiz-adv-x="415" d="M-113 1753q0 14 2 16q19 36 81.5 104t72.5 81q4 4 15 23.5t22.5 32.5t23.5 13q36 0 78 -64q2 -1 2.5 -2.5t1.5 -2.5q7 -9 40.5 -54.5t37.5 -52.5q3 -4 19.5 -22t31.5 -35.5t17 -20.5q10 -10 10 -30q0 -12 -7.5 -20.5t-19.5 -8.5t-32 10q-32 33 -85 101t-77 94 q-13 -13 -55 -68t-79.5 -97t-54.5 -42q-19 0 -32 12.5t-13 32.5zM104 1552q1 24 27.5 29.5t53 -8.5t28.5 -37l90 -1249q10 -97 10 -109q-3 -45 -69 -45q-21 0 -34 12.5t-17.5 27t-8.5 38.5l-51 899q-3 48 -12 139t-14 164.5t-3 138.5z" />
<glyph unicode="&#xcf;" horiz-adv-x="415" d="M-82 1843q0 20 25 41t45 21q41 0 66.5 -29t25.5 -72q0 -51 -82 -51q-38 0 -59 23.5t-21 66.5zM104 1552q1 24 27.5 29.5t53 -8.5t28.5 -37l90 -1249q10 -97 10 -109q-3 -45 -69 -45q-21 0 -34 12.5t-17.5 27t-8.5 38.5l-51 899q-3 48 -12 139t-14 164.5t-3 138.5z M188 1864q0 19 22 40t38 21q35 0 56.5 -28.5t21.5 -73.5q0 -54 -70 -54q-32 0 -50 25.5t-18 69.5z" />
<glyph unicode="&#xd1;" horiz-adv-x="909" d="M102 59l52 1473q18 34 44 32.5t43 -17.5t31 -36q38 -110 154.5 -488t202.5 -589l20 287q26 296 23 739q6 25 28.5 38t49.5 13q41 0 57 -26q-42 -497 -68 -1385l-2 -26q-4 -9 -20.5 -24t-28.5 -15q-13 0 -31.5 13.5t-25.5 25.5q-54 164 -190 548.5t-203 594.5l-15 -1168 q-17 -37 -38.5 -51t-39 -7t-30 26t-13.5 42zM236 1716q0 53 44.5 101.5t96.5 48.5q39 0 74.5 -19.5t56 -43t39.5 -43t28 -19.5q34 0 49.5 15.5t15.5 33.5t7.5 33.5t26.5 15.5q55 0 55 -70q0 -55 -34 -84.5t-93 -29.5q-34 0 -62 13t-46 31.5t-33.5 36.5t-32 31t-33.5 13 q-20 0 -34.5 -16.5t-22 -36t-18 -36t-23.5 -16.5q-20 0 -40.5 11.5t-20.5 29.5z" />
<glyph unicode="&#xd2;" horiz-adv-x="921" d="M104 946q-2 102 5 191t30 176t60 148.5t99.5 99.5t145.5 38q82 0 151.5 -62.5t114.5 -165.5t73 -235t34 -270t-10 -272t-52.5 -240t-99.5 -174.5t-145 -75.5q-4 0 -12.5 -1t-12.5 -1q-126 0 -201.5 73t-113.5 218q-7 31 -15 74.5t-20 127t-20.5 166.5t-10.5 185z M220 1033q-5 -115 4.5 -227t21 -194t22.5 -125q7 -31 22 -70.5t38.5 -86t57 -79.5t69.5 -36h24q39 3 72 33t52.5 65.5t37.5 90.5t24.5 85.5t14.5 73.5q9 45 14.5 126t5.5 186t-14 211.5t-40 197t-77 147t-120 56.5h-17q-73 -7 -121.5 -73t-67 -166t-23.5 -215zM328 1914v3 v4.5v5.5q0 20 18 35.5t39 15.5q14 -6 18 -8l134 -86q1 -1 9.5 -6t10.5 -6.5t9 -6.5t10 -8t8 -8.5t6.5 -9.5t3.5 -10t2 -12q0 -20 -14.5 -34t-34.5 -14q-16 0 -29 11l-76 57l-104 66l-4.5 3t-2.5 2.5t-2 2.5t-1 3z" />
<glyph unicode="&#xd3;" horiz-adv-x="921" d="M104 946q-2 102 5 191t30 176t60 148.5t99.5 99.5t145.5 38q82 0 151.5 -62.5t114.5 -165.5t73 -235t34 -270t-10 -272t-52.5 -240t-99.5 -174.5t-145 -75.5q-4 0 -12.5 -1t-12.5 -1q-126 0 -201.5 73t-113.5 218q-7 31 -15 74.5t-20 127t-20.5 166.5t-10.5 185z M220 1033q-5 -115 4.5 -227t21 -194t22.5 -125q7 -31 22 -70.5t38.5 -86t57 -79.5t69.5 -36h24q39 3 72 33t52.5 65.5t37.5 90.5t24.5 85.5t14.5 73.5q9 45 14.5 126t5.5 186t-14 211.5t-40 197t-77 147t-120 56.5h-17q-73 -7 -121.5 -73t-67 -166t-23.5 -215zM326 1817 q0 6 2 12t3.5 10t6.5 9.5t8 8.5t10 8t9 6.5t10.5 6.5t9.5 6l133 86l19 8q21 0 39 -15.5t18 -35.5v-5q0 -12 -10 -19l-105 -66l-76 -57q-13 -11 -28 -11q-20 0 -34.5 14t-14.5 34z" />
<glyph unicode="&#xd4;" horiz-adv-x="921" d="M104 946q-2 102 5 191t30 176t60 148.5t99.5 99.5t145.5 38q82 0 151.5 -62.5t114.5 -165.5t73 -235t34 -270t-10 -272t-52.5 -240t-99.5 -174.5t-145 -75.5q-4 0 -12.5 -1t-12.5 -1q-126 0 -201.5 73t-113.5 218q-7 31 -15 74.5t-20 127t-20.5 166.5t-10.5 185z M168 1733q0 14 2 16q19 36 81 103.5t73 80.5q4 5 15 24t22.5 32.5t23.5 13.5q6 0 12 -1.5t12 -4.5t10.5 -5.5t10 -9t8.5 -9t8.5 -10.5t7 -10t7.5 -10.5t6 -9.5q7 -9 40.5 -54t37.5 -52q3 -3 19.5 -21.5t31 -35.5t16.5 -21q11 -11 11 -31q0 -12 -7.5 -20t-19.5 -8 q-13 0 -33 10q-32 33 -85.5 100.5t-76.5 93.5q-13 -13 -54.5 -68t-79 -96.5t-54.5 -41.5q-19 0 -32 12.5t-13 32.5zM220 1033q-5 -115 4.5 -227t21 -194t22.5 -125q7 -31 22 -70.5t38.5 -86t57 -79.5t69.5 -36h24q39 3 72 33t52.5 65.5t37.5 90.5t24.5 85.5t14.5 73.5 q9 45 14.5 126t5.5 186t-14 211.5t-40 197t-77 147t-120 56.5h-17q-73 -7 -121.5 -73t-67 -166t-23.5 -215z" />
<glyph unicode="&#xd5;" horiz-adv-x="921" d="M104 946q-2 102 5 191t30 176t60 148.5t99.5 99.5t145.5 38q82 0 151.5 -62.5t114.5 -165.5t73 -235t34 -270t-10 -272t-52.5 -240t-99.5 -174.5t-145 -75.5q-4 0 -12.5 -1t-12.5 -1q-126 0 -201.5 73t-113.5 218q-7 31 -15 74.5t-20 127t-20.5 166.5t-10.5 185z M147 1774q0 53 45 101t97 48q39 0 74.5 -19.5t56 -43t39.5 -43t28 -19.5q34 0 49.5 15.5t15.5 33.5t7.5 33.5t26.5 15.5q55 0 55 -69q0 -55 -34 -85t-93 -30q-34 0 -62 13t-46 31t-33.5 36.5t-32 31.5t-33.5 13q-20 0 -34.5 -16.5t-22 -35.5t-18 -35.5t-23.5 -16.5 q-21 0 -41.5 11.5t-20.5 29.5zM220 1033q-5 -115 4.5 -227t21 -194t22.5 -125q7 -31 22 -70.5t38.5 -86t57 -79.5t69.5 -36h24q39 3 72 33t52.5 65.5t37.5 90.5t24.5 85.5t14.5 73.5q9 45 14.5 126t5.5 186t-14 211.5t-40 197t-77 147t-120 56.5h-17q-73 -7 -121.5 -73 t-67 -166t-23.5 -215z" />
<glyph unicode="&#xd6;" horiz-adv-x="921" d="M104 946q-2 102 5 191t30 176t60 148.5t99.5 99.5t145.5 38q82 0 151.5 -62.5t114.5 -165.5t73 -235t34 -270t-10 -272t-52.5 -240t-99.5 -174.5t-145 -75.5q-4 0 -12.5 -1t-12.5 -1q-126 0 -201.5 73t-113.5 218q-7 31 -15 74.5t-20 127t-20.5 166.5t-10.5 185z M154 1794q0 20 24.5 40.5t44.5 20.5q41 0 66.5 -28.5t25.5 -71.5q0 -51 -82 -51q-38 0 -58.5 23.5t-20.5 66.5zM220 1033q-5 -115 4.5 -227t21 -194t22.5 -125q7 -31 22 -70.5t38.5 -86t57 -79.5t69.5 -36h24q39 3 72 33t52.5 65.5t37.5 90.5t24.5 85.5t14.5 73.5 q9 45 14.5 126t5.5 186t-14 211.5t-40 197t-77 147t-120 56.5h-17q-73 -7 -121.5 -73t-67 -166t-23.5 -215zM424 1815q0 19 21.5 40t37.5 21q35 0 56.5 -28.5t21.5 -73.5q0 -54 -69 -54q-32 0 -50 25.5t-18 69.5z" />
<glyph unicode="&#xd8;" horiz-adv-x="921" d="M104 946q-2 102 5 191t30 176t60 148.5t99.5 99.5t145.5 38q86 0 160 -71q2 12 23 92l4 28q4 29 8 33q19 2 27 2q67 0 67 -71q0 -76 -43 -203q52 -97 84 -232t41 -276t-6 -281.5t-50.5 -252t-100 -184t-148.5 -79.5q-4 0 -12.5 -1t-12.5 -1q-95 0 -163 41l-39 -120 q-9 -35 -35 -35q-33 0 -47.5 10t-14.5 37q0 1 1 11t1 11q20 68 52 170q-45 62 -70 166q-7 31 -15 74.5t-20 127t-20.5 166.5t-10.5 185zM220 1033q-5 -115 4.5 -227t21 -194t22.5 -125q5 -27 25 -81q167 562 282 1013q-52 68 -126 68h-17q-73 -7 -121.5 -73t-67 -166 t-23.5 -215zM362 276q48 -58 93 -61h24q39 3 72 33t52.5 65.5t37.5 90.5t24.5 85.5t14.5 73.5q12 64 17 179t-6.5 271t-45.5 265l-6 -25q-25 -88 -123 -438.5t-154 -538.5z" />
<glyph unicode="&#xd9;" horiz-adv-x="911" d="M104 539v36q0 130 5 375q1 49 3.5 161t4 175.5t7 156.5t13.5 171q24 24 51 24q26 0 42 -13t20.5 -32.5t6 -42.5t-0.5 -43v-12q-2 -103 -16.5 -305.5t-16.5 -304.5q0 -16 -4.5 -81t-6 -120t-1.5 -132t9.5 -137t26 -115t49 -85.5t77.5 -30.5q35 0 68 31t56 76.5t37.5 84.5 t20.5 68q123 579 123 1096v45q0 21 21 31t46 10q26 0 45 -18.5t19 -42.5l-2 -31q-35 -549 -100 -920l-5 -26q-1 -2 -2.5 -9t-3.5 -12q-8 -45 -13.5 -74.5t-19.5 -85t-28.5 -94t-39.5 -86t-53.5 -76.5t-69 -49t-87.5 -20q-54 0 -97.5 16.5t-72 42.5t-50 65.5t-33 77.5t-18 87 t-8.5 86t-2 82zM322 1914v3v4.5v5.5q0 20 18 35.5t39 15.5q14 -6 18 -8l133 -86q1 -1 10.5 -7t12.5 -8t11 -7.5t11 -9.5l7.5 -10t6 -12t1.5 -13q0 -20 -14.5 -34t-34.5 -14q-16 0 -29 11l-76 57l-104 66l-4.5 3t-2.5 2.5t-2 2.5t-1 3z" />
<glyph unicode="&#xda;" horiz-adv-x="911" d="M104 539v36q0 130 5 375q1 49 3.5 161t4 175.5t7 156.5t13.5 171q24 24 51 24q26 0 42 -13t20.5 -32.5t6 -42.5t-0.5 -43v-12q-2 -103 -16.5 -305.5t-16.5 -304.5q0 -16 -4.5 -81t-6 -120t-1.5 -132t9.5 -137t26 -115t49 -85.5t77.5 -30.5q35 0 68 31t56 76.5t37.5 84.5 t20.5 68q123 579 123 1096v45q0 21 21 31t46 10q26 0 45 -18.5t19 -42.5l-2 -31q-35 -549 -100 -920l-5 -26q-1 -2 -2.5 -9t-3.5 -12q-8 -45 -13.5 -74.5t-19.5 -85t-28.5 -94t-39.5 -86t-53.5 -76.5t-69 -49t-87.5 -20q-54 0 -97.5 16.5t-72 42.5t-50 65.5t-33 77.5t-18 87 t-8.5 86t-2 82zM319 1817q0 7 1.5 13t6 12l7.5 10t11 9.5t11 7.5t12.5 8t10.5 7l133 86l18 8q21 0 39.5 -15.5t18.5 -35.5v-5q0 -12 -10 -19l-105 -66l-76 -57q-13 -11 -28 -11q-20 0 -35 14t-15 34z" />
<glyph unicode="&#xdb;" horiz-adv-x="911" d="M104 539v36q0 130 5 375q1 49 3.5 161t4 175.5t7 156.5t13.5 171q24 24 51 24q26 0 42 -13t20.5 -32.5t6 -42.5t-0.5 -43v-12q-2 -103 -16.5 -305.5t-16.5 -304.5q0 -16 -4.5 -81t-6 -120t-1.5 -132t9.5 -137t26 -115t49 -85.5t77.5 -30.5q35 0 68 31t56 76.5t37.5 84.5 t20.5 68q123 579 123 1096v45q0 21 21 31t46 10q26 0 45 -18.5t19 -42.5l-2 -31q-35 -549 -100 -920l-5 -26q-1 -2 -2.5 -9t-3.5 -12q-8 -45 -13.5 -74.5t-19.5 -85t-28.5 -94t-39.5 -86t-53.5 -76.5t-69 -49t-87.5 -20q-54 0 -97.5 16.5t-72 42.5t-50 65.5t-33 77.5t-18 87 t-8.5 86t-2 82zM227 1802q0 15 2 17q19 36 81 103.5t73 80.5q4 5 15 24t22.5 32.5t23.5 13.5q6 0 12 -1.5t12 -4.5t10.5 -5.5t10 -9t8.5 -9t8.5 -10.5t7 -10t7.5 -10.5t6 -9.5q7 -9 40.5 -54.5t37.5 -52.5q2 -3 34 -37.5t34 -39.5q10 -10 10 -31q0 -12 -7.5 -20.5 t-19.5 -8.5t-32 10q-32 33 -85 101t-77 94q-13 -13 -55 -68t-79.5 -97t-54.5 -42q-19 0 -32 12.5t-13 32.5z" />
<glyph unicode="&#xdc;" horiz-adv-x="911" d="M104 539v36q0 130 5 375q1 49 3.5 161t4 175.5t7 156.5t13.5 171q24 24 51 24q26 0 42 -13t20.5 -32.5t6 -42.5t-0.5 -43v-12q-2 -103 -16.5 -305.5t-16.5 -304.5q0 -16 -4.5 -81t-6 -120t-1.5 -132t9.5 -137t26 -115t49 -85.5t77.5 -30.5q35 0 68 31t56 76.5t37.5 84.5 t20.5 68q123 579 123 1096v45q0 21 21 31t46 10q26 0 45 -18.5t19 -42.5l-2 -31q-35 -549 -100 -920l-5 -26q-1 -2 -2.5 -9t-3.5 -12q-8 -45 -13.5 -74.5t-19.5 -85t-28.5 -94t-39.5 -86t-53.5 -76.5t-69 -49t-87.5 -20q-54 0 -97.5 16.5t-72 42.5t-50 65.5t-33 77.5t-18 87 t-8.5 86t-2 82zM252 1843q0 20 25 41t45 21q41 0 66.5 -29t25.5 -72q0 -51 -82 -51q-38 0 -59 23.5t-21 66.5zM522 1864q0 19 22 40t38 21q35 0 56 -28.5t21 -73.5q0 -54 -69 -54q-32 0 -50 25.5t-18 69.5z" />
<glyph unicode="&#xdd;" horiz-adv-x="802" d="M117 1407q-32 70 5 98q26 20 55 4q16 -9 22 -26l233 -492l137 543q4 27 36.5 37t63.5 -4.5t31 -46.5v-9l-202 -622l71 -832q0 -45 -55 -45q-53 0 -61 39q-10 86 -22.5 271.5t-28.5 335.5t-42 251q-194 387 -243 498zM213 1710q0 5 1 9.5t2.5 8.5t5 8.5t5 7t6.5 7t7 6 t8.5 6t8 5.5t8 5.5t7.5 4.5l134 86l18 8q21 0 39 -15.5t18 -35.5v-6v-5t-0.5 -3.5t-1.5 -3.5l-3 -3t-5 -4l-104 -65l-76 -58q-12 -10 -29 -10q-20 0 -34.5 13.5t-14.5 33.5z" />
<glyph unicode="&#xdf;" horiz-adv-x="983" d="M102 41v182q2 64 7.5 377t5.5 363v73q10 195 24 340q8 67 27 121.5t51.5 100t85 71t121.5 25.5q83 0 143 -56.5t60 -138.5q0 -44 -19 -95.5t-42.5 -91.5t-42.5 -93t-19 -99q0 -59 59 -133q17 -19 56.5 -62.5t58 -64t52 -61.5t50.5 -67t40 -67t33.5 -75t19 -77t8.5 -87 q0 -130 -79.5 -215.5t-207.5 -85.5q-28 0 -63 8t-68 30.5t-33 53.5q0 25 24.5 41.5t49.5 13.5q19 -4 45.5 -26.5t52.5 -22.5q86 0 127 66t41 157q0 50 -16 101.5t-38 92.5t-59 90t-66 81.5t-71.5 79t-64.5 72.5q-62 74 -62 172q0 46 17.5 98.5t39 92t39 90t17.5 93.5 q0 41 -21 70t-61 29h-6q-54 -23 -92 -66.5t-56.5 -80.5t-30 -110.5t-13 -104.5t-2.5 -115q-1 -22 -1 -33q-1 -49 -5.5 -333.5t-4.5 -334.5v-135q0 -38 5 -112t5 -111q0 -28 -22.5 -42t-50.5 -14h-15t-11.5 2t-13 7.5t-8.5 15.5z" />
<glyph unicode="&#xe0;" horiz-adv-x="817" d="M102 158l215 1489q7 28 13 44t22.5 34t40.5 18q45 0 64 -31l16 -43q56 -219 102 -488.5t68.5 -447t58.5 -497.5l13 -134q0 -1 -1 -2t-1 -2q-11 -32 -23 -43.5t-39 -11.5h-6q-33 0 -35 14l-51 389h-303l-12 -12l-35 -231q0 -3 -1.5 -19t-3 -26t-6 -25.5t-10 -25 t-16.5 -16.5t-25 -7q-18 0 -31.5 27.5t-13.5 46.5zM262 1941v5v6q0 20 18 35.5t39 15.5q15 -6 19 -8l133 -86q42 -27 52 -43q7 -12 7 -25q0 -20 -14.5 -33.5t-34.5 -13.5q-16 0 -28 10l-76 58l-105 65q-3 2 -5 4l-3 3t-1.5 3.5t-0.5 3.5zM287 573l256 -6l-137 957z" />
<glyph unicode="&#xe1;" horiz-adv-x="817" d="M102 158l215 1489q7 28 13 44t22.5 34t40.5 18q45 0 64 -31l16 -43q56 -219 102 -488.5t68.5 -447t58.5 -497.5l13 -134q0 -1 -1 -2t-1 -2q-11 -32 -23 -43.5t-39 -11.5h-6q-33 0 -35 14l-51 389h-303l-12 -12l-35 -231q0 -3 -1.5 -19t-3 -26t-6 -25.5t-10 -25 t-16.5 -16.5t-25 -7q-18 0 -31.5 27.5t-13.5 46.5zM231 1903q0 7 1.5 13t6 12l7.5 10t11 9.5t11 7.5t12.5 8t10.5 7l133 86l18 8q21 0 39.5 -15.5t18.5 -35.5v-3q0 -13 -8 -19l-3 -2l-104 -66l-76 -57q-13 -11 -28 -11q-20 0 -35 14t-15 34zM287 573l256 -6l-137 957z" />
<glyph unicode="&#xe2;" horiz-adv-x="817" d="M102 158l215 1489q7 28 13 44t22.5 34t40.5 18q45 0 64 -31l16 -43q56 -219 102 -488.5t68.5 -447t58.5 -497.5l13 -134q0 -1 -1 -2t-1 -2q-11 -32 -23 -43.5t-39 -11.5h-6q-33 0 -35 14l-51 389h-303l-12 -12l-35 -231q0 -3 -1.5 -19t-3 -26t-6 -25.5t-10 -25 t-16.5 -16.5t-25 -7q-18 0 -31.5 27.5t-13.5 46.5zM172 1819q0 12 2 14q17 35 74 101t65 77q3 3 13.5 22.5t21 31.5t21.5 12q10 0 19 -4t17 -12.5t13 -15t13 -18.5t11 -16l70 -102q3 -5 31 -38.5t30 -37.5q9 -12 9 -29q0 -28 -25 -28q-12 0 -29 10q-29 32 -77 97.5t-68 90.5 q-11 -12 -49 -66t-72 -94t-49 -40q-18 0 -29.5 12.5t-11.5 32.5zM287 573l256 -6l-137 957z" />
<glyph unicode="&#xe3;" horiz-adv-x="817" d="M102 158l215 1489q7 28 13 44t22.5 34t40.5 18q45 0 64 -31l16 -43q56 -219 102 -488.5t68.5 -447t58.5 -497.5l13 -134q0 -1 -1 -2t-1 -2q-11 -32 -23 -43.5t-39 -11.5h-6q-33 0 -35 14l-51 389h-303l-12 -12l-35 -231q0 -3 -1.5 -19t-3 -26t-6 -25.5t-10 -25 t-16.5 -16.5t-25 -7q-18 0 -31.5 27.5t-13.5 46.5zM125 1892q0 53 44.5 101.5t96.5 48.5q39 0 75 -19.5t56.5 -43t39.5 -43t28 -19.5q34 0 49 15.5t15.5 33.5t7.5 33.5t26 15.5q55 0 55 -69q0 -55 -33.5 -85t-92.5 -30q-34 0 -62 13t-46 31.5t-33.5 36.5t-32 31t-33.5 13 q-20 0 -35 -16.5t-22 -36t-18 -36t-24 -16.5q-20 0 -40.5 11.5t-20.5 29.5zM287 573l256 -6l-137 957z" />
<glyph unicode="&#xe4;" horiz-adv-x="817" d="M102 158l215 1489q7 28 13 44t22.5 34t40.5 18q45 0 64 -31l16 -43q56 -219 102 -488.5t68.5 -447t58.5 -497.5l13 -134q0 -1 -1 -2t-1 -2q-11 -32 -23 -43.5t-39 -11.5h-6q-33 0 -35 14l-51 389h-303l-12 -12l-35 -231q0 -3 -1.5 -19t-3 -26t-6 -25.5t-10 -25 t-16.5 -16.5t-25 -7q-18 0 -31.5 27.5t-13.5 46.5zM205 1847q0 20 24.5 41t44.5 21q41 0 67 -29t26 -72q0 -51 -82 -51q-38 0 -59 23.5t-21 66.5zM287 573l256 -6l-137 957zM475 1868q0 19 22 40t38 21q35 0 56 -28.5t21 -73.5q0 -32 -18.5 -42.5t-50.5 -10.5t-50 25t-18 69 z" />
<glyph unicode="&#xe5;" horiz-adv-x="817" d="M102 158l215 1489q3 17 13 41q-99 35 -99 137q0 98 50 154.5t147 56.5q68 0 112 -44.5t44 -113.5q0 -72 -29 -125.5t-86 -71.5l4 -12q56 -219 102 -488.5t68.5 -447t58.5 -497.5l13 -134q0 -1 -1 -2t-1 -2q-11 -32 -23 -43.5t-39 -11.5h-6q-33 0 -35 14l-51 389h-303 l-12 -12l-35 -231q0 -3 -1.5 -19t-3 -26t-6 -25.5t-10 -25t-16.5 -16.5t-25 -7q-18 0 -31.5 27.5t-13.5 46.5zM287 573l256 -6l-137 957zM309 1825q0 -32 22 -50t56 -18q53 0 83 32t30 85q0 34 -15 59t-47 25q-56 0 -92.5 -38.5t-36.5 -94.5z" />
<glyph unicode="&#xe6;" horiz-adv-x="1177" d="M102 158l215 1489q7 28 13 44t22.5 34t40.5 18q2 0 23 -1.5t135 -8.5t303 -17q9 0 31 -16.5t24 -24.5q2 -4 2 -10q0 -27 -27.5 -43t-56.5 -16h-4l-338 16q102 -420 179 -1051l305 31q47 0 58 -34t-24 -62q-23 -18 -61 -23l-266 -37q3 -34 13 -101.5t13 -108.5l11 -111 l10 -2q18 -2 106 -2q33 0 76 4t68 6.5t50 0t36.5 -16.5t13.5 -41q2 -30 -100 -44t-213 -9t-137 22q-13 4 -13 14l-51 389h-303l-12 -12l-35 -231q0 -3 -1.5 -19t-3 -26t-6 -25.5t-10 -25t-16.5 -16.5t-25 -7q-18 0 -31.5 27.5t-13.5 46.5zM287 573l256 -6l-137 957z" />
<glyph unicode="&#xe7;" horiz-adv-x="778" d="M102 884q6 132 35 251q16 69 39 134t61.5 132.5t85.5 117t113.5 81.5t143.5 32q35 0 65.5 -21.5t30.5 -54.5q0 -17 -9.5 -29t-22 -18t-32 -8.5t-32.5 -2.5t-31.5 0.5t-20.5 0.5h-12q-57 0 -106 -45t-81.5 -115t-55.5 -157t-33.5 -170.5t-10.5 -155.5q0 -113 6 -185.5 t25 -152.5t59.5 -142.5t106.5 -117.5q29 -25 72 -32t77 -2t64.5 2t40.5 -21q28 -49 -6 -72.5t-94 -23.5q-93 0 -170 36v-51q99 -9 150 -87q43 -66 23 -133q-21 -70 -103 -84q-36 -6 -81 1q-21 0 -69.5 33t-48.5 55q0 45 28 45q29 0 54.5 -24.5t56.5 -24.5q90 0 90 64 q0 26 -14 38t-35.5 13t-46 7t-46 17t-35.5 44.5t-14 88.5v52q-82 68 -135 181.5t-70.5 242.5t-11.5 261z" />
<glyph unicode="&#xe8;" horiz-adv-x="684" d="M102 1495q0 28 22 50t50 22h324q9 0 31 -16.5t24 -24.5q2 -4 2 -10q0 -28 -29 -44t-59 -16h-246l10 -680l222 33h10q55 0 57 -34q2 -31 -34 -55q-21 -14 -46 -18l-204 -30l-7 -535q18 -2 107 -2q33 0 76 4t68 6.5t50 0t36.5 -16.5t13.5 -41q2 -32 -112 -45t-228.5 -4.5 t-114.5 27.5zM147 1931q0 20 18.5 35.5t39.5 15.5q14 -6 18 -8l133 -86q1 -1 10.5 -7t12.5 -8t11 -7.5t11 -9.5l7.5 -10t6 -12t1.5 -13q0 -20 -14.5 -33.5t-34.5 -13.5q-17 0 -29 10l-76 57l-104 66q-6 4 -8 7t-2.5 5.5t-0.5 11.5z" />
<glyph unicode="&#xe9;" horiz-adv-x="684" d="M102 1495q0 28 22 50t50 22h324q9 0 31 -16.5t24 -24.5q2 -4 2 -10q0 -28 -29 -44t-59 -16h-246l10 -680l222 33h10q55 0 57 -34q2 -31 -34 -55q-21 -14 -46 -18l-204 -30l-7 -535q18 -2 107 -2q33 0 76 4t68 6.5t50 0t36.5 -16.5t13.5 -41q2 -32 -112 -45t-228.5 -4.5 t-114.5 27.5zM207 1821q0 6 2 12t3.5 10t6.5 9.5t8 8.5t10 8t9 6.5t10.5 6.5t9.5 6l133 86l19 8q21 0 39 -15.5t18 -35.5v-5q0 -6 -0.5 -8t-2.5 -5t-7 -6l-105 -66l-75 -57q-12 -10 -29 -10q-20 0 -34.5 13.5t-14.5 33.5z" />
<glyph unicode="&#xea;" horiz-adv-x="684" d="M66 1745q0 14 2 16q19 36 81.5 104.5t71.5 80.5q4 4 15 23.5t23 32.5t24 13q36 0 78 -64q2 -1 2.5 -2.5t1.5 -2.5q7 -8 40 -54t37 -53q3 -4 19.5 -22t31.5 -35.5t17 -20.5q10 -10 10 -30q0 -12 -7 -20.5t-19 -8.5q-13 0 -33 10q-32 33 -85 101t-77 94q-13 -13 -54.5 -68 t-79 -97t-54.5 -42q-19 0 -32 12.5t-13 32.5zM102 1495q0 28 22 50t50 22h324q9 0 31 -16.5t24 -24.5q2 -4 2 -10q0 -28 -29 -44t-59 -16h-246l10 -680l222 33h10q55 0 57 -34q2 -31 -34 -55q-21 -14 -46 -18l-204 -30l-7 -535q18 -2 107 -2q33 0 76 4t68 6.5t50 0 t36.5 -16.5t13.5 -41q2 -32 -112 -45t-228.5 -4.5t-114.5 27.5z" />
<glyph unicode="&#xeb;" horiz-adv-x="684" d="M102 1495q0 28 22 50t50 22h324q9 0 31 -16.5t24 -24.5q2 -4 2 -10q0 -28 -29 -44t-59 -16h-246l10 -680l222 33h10q55 0 57 -34q2 -31 -34 -55q-21 -14 -46 -18l-204 -30l-7 -535q18 -2 107 -2q33 0 76 4t68 6.5t50 0t36.5 -16.5t13.5 -41q2 -32 -112 -45t-228.5 -4.5 t-114.5 27.5zM137 1847q0 20 25 41t45 21q41 0 66.5 -29t25.5 -72q0 -51 -82 -51q-38 0 -59 23.5t-21 66.5zM408 1868q0 19 21.5 40t37.5 21q35 0 56.5 -28.5t21.5 -73.5q0 -32 -19 -42.5t-51 -10.5t-49.5 25t-17.5 69z" />
<glyph unicode="&#xec;" horiz-adv-x="387" d="M61 1931q0 20 18.5 35.5t39.5 15.5q14 -6 18 -8l133 -86q1 -1 10.5 -7t12.5 -8t11 -7.5t11 -9.5l7.5 -10t6 -12t1.5 -13q0 -20 -14.5 -33.5t-34.5 -13.5q-17 0 -29 10l-76 57l-104 66q-6 4 -8 7t-2.5 5.5t-0.5 11.5zM102 39l56 1520q10 30 21.5 36.5t45.5 6.5 q41 0 50.5 -17.5t9.5 -68.5q0 -3 -1 -19t-1 -18l-62 -1401q-2 -54 -49 -72q-36 -14 -59 6q-11 10 -11 27z" />
<glyph unicode="&#xed;" horiz-adv-x="387" d="M59 1821q0 7 1.5 13t6 12l7.5 10t11 9.5t11 7.5t12.5 8t10.5 7l133 86l18 8q21 0 39.5 -15.5t18.5 -35.5v-3q0 -13 -8 -19l-3 -2l-104 -66l-76 -57q-12 -10 -28 -10q-21 0 -35.5 13.5t-14.5 33.5zM102 39l56 1520q10 30 21.5 36.5t45.5 6.5q41 0 50.5 -17.5t9.5 -68.5 q0 -3 -1 -19t-1 -18l-62 -1401q-2 -54 -49 -72q-36 -14 -59 6q-11 10 -11 27z" />
<glyph unicode="&#xee;" horiz-adv-x="387" d="M-33 1806q0 15 2 17q19 36 81 103.5t73 80.5q4 5 15 24t22.5 32.5t23.5 13.5q6 0 12 -1.5t12 -4.5t10.5 -5.5t10 -9t8.5 -9t8.5 -10.5t7 -10t7.5 -10.5t6 -9.5q7 -9 40.5 -54t37.5 -52q3 -4 19.5 -22t31.5 -35.5t17 -20.5q10 -10 10 -31q0 -12 -7.5 -20.5t-19.5 -8.5 q-11 0 -33 11q-32 33 -84.5 100.5t-76.5 93.5q-13 -13 -55 -68t-79.5 -97t-54.5 -42q-19 0 -32 12.5t-13 32.5zM102 39l56 1520q10 30 21.5 36.5t45.5 6.5q41 0 50.5 -17.5t9.5 -68.5q0 -3 -1 -19t-1 -18l-62 -1401q-2 -54 -49 -72q-36 -14 -59 6q-11 10 -11 27z" />
<glyph unicode="&#xef;" horiz-adv-x="387" d="M-10 1847q0 20 24.5 41t44.5 21q41 0 67 -29t26 -72q0 -51 -82 -51q-38 0 -59 23.5t-21 66.5zM102 39l56 1520q10 30 21.5 36.5t45.5 6.5q41 0 50.5 -17.5t9.5 -68.5q0 -3 -1 -19t-1 -18l-62 -1401q-2 -54 -49 -72q-36 -14 -59 6q-11 10 -11 27zM260 1868q0 19 21.5 40 t37.5 21q35 0 56.5 -28.5t21.5 -73.5q0 -32 -18.5 -42.5t-50.5 -10.5t-50 25t-18 69z" />
<glyph unicode="&#xf1;" horiz-adv-x="960" d="M102 66l25 1441q-2 41 27 66.5t67 13.5t58 -67l417 -1133q10 439 31 795q2 33 3 114.5t5.5 138.5t16.5 109q0 16 12 19.5t41 3.5q37 -2 44.5 -9t6.5 -40q-3 -111 -22 -324t-23 -315q-25 -744 -25 -805q-12 -30 -46.5 -21t-47.5 37q-29 61 -471 1245l-14 -1257 q0 -28 -26.5 -39.5t-52.5 -2.5t-26 30zM238 1733q0 53 44.5 101t96.5 48q39 0 75 -19.5t56.5 -43t39.5 -43t28 -19.5q34 0 49 15.5t15.5 33.5t7.5 33.5t26 15.5q55 0 55 -69q0 -55 -34 -85t-93 -30q-34 0 -62 13t-46 31.5t-33.5 36.5t-32 31t-33.5 13q-20 0 -34.5 -16 t-22 -36t-18 -36t-23.5 -16q-20 0 -40.5 11.5t-20.5 29.5z" />
<glyph unicode="&#xf2;" horiz-adv-x="894" d="M102 918q0 69 2 124t10.5 135t23.5 141t43.5 127.5t67.5 110t99 71.5t135 28q87 -10 150 -80.5t93.5 -188t48 -235t16.5 -266.5t-4.5 -233.5t-10.5 -182.5q-5 -49 -16.5 -100.5t-35 -108.5t-55 -100.5t-80.5 -72t-108 -28.5q-75 0 -135 36t-98.5 91t-67.5 136.5 t-43.5 155.5t-22.5 166t-10 150t-2 124zM219 926q0 -218 19 -371.5t55 -237t80 -119.5t102 -36q36 0 66 21.5t50.5 62.5t36 86.5t24.5 106.5t14.5 109t8 108t3 89t0.5 66v8q0 46 -4.5 110t-14 149.5t-28 166t-43 150.5t-63.5 112.5t-85 42.5q-54 0 -98.5 -54t-69.5 -130.5 t-38 -146t-13 -113.5q-2 -66 -2 -180zM313 1931q0 20 18.5 35.5t39.5 15.5q14 -6 18 -8l133 -86q1 -1 10.5 -7t12.5 -8t11 -7.5t11 -9.5l7.5 -10t6 -12t1.5 -13q0 -20 -14.5 -33.5t-35.5 -13.5q-16 0 -28 10l-76 57l-104 66q-6 4 -8 7t-2.5 5.5t-0.5 11.5z" />
<glyph unicode="&#xf3;" horiz-adv-x="894" d="M102 918q0 69 2 124t10.5 135t23.5 141t43.5 127.5t67.5 110t99 71.5t135 28q87 -10 150 -80.5t93.5 -188t48 -235t16.5 -266.5t-4.5 -233.5t-10.5 -182.5q-5 -49 -16.5 -100.5t-35 -108.5t-55 -100.5t-80.5 -72t-108 -28.5q-75 0 -135 36t-98.5 91t-67.5 136.5 t-43.5 155.5t-22.5 166t-10 150t-2 124zM219 926q0 -218 19 -371.5t55 -237t80 -119.5t102 -36q36 0 66 21.5t50.5 62.5t36 86.5t24.5 106.5t14.5 109t8 108t3 89t0.5 66v8q0 46 -4.5 110t-14 149.5t-28 166t-43 150.5t-63.5 112.5t-85 42.5q-54 0 -98.5 -54t-69.5 -130.5 t-38 -146t-13 -113.5q-2 -66 -2 -180zM311 1821q0 7 1.5 13t6 12l7.5 10t11 9.5t11 7.5t12.5 8t10.5 7l133 86l18 8q21 0 39.5 -15.5t18.5 -35.5v-3q0 -13 -8 -19l-3 -2l-104 -66l-76 -57q-12 -10 -29 -10q-20 0 -34.5 13.5t-14.5 33.5z" />
<glyph unicode="&#xf4;" horiz-adv-x="894" d="M102 918q0 69 2 124t10.5 135t23.5 141t43.5 127.5t67.5 110t99 71.5t135 28q87 -10 150 -80.5t93.5 -188t48 -235t16.5 -266.5t-4.5 -233.5t-10.5 -182.5q-5 -49 -16.5 -100.5t-35 -108.5t-55 -100.5t-80.5 -72t-108 -28.5q-75 0 -135 36t-98.5 91t-67.5 136.5 t-43.5 155.5t-22.5 166t-10 150t-2 124zM186 1769q0 15 2 17q19 36 81 103.5t73 80.5q4 5 15 24t22.5 32.5t23.5 13.5q6 0 12 -1.5t12 -4.5t10.5 -5.5t10 -9t8.5 -9t8.5 -10.5t7 -10t7.5 -10.5t6 -9.5q7 -9 40.5 -54t37.5 -52q3 -4 19.5 -22t31.5 -35.5t17 -20.5 q10 -10 10 -31q0 -12 -7.5 -20.5t-19.5 -8.5q-10 0 -32 11q-32 33 -85.5 100.5t-76.5 93.5q-13 -13 -55 -68t-79.5 -97t-54.5 -42q-19 0 -32 12.5t-13 32.5zM219 926q0 -218 19 -371.5t55 -237t80 -119.5t102 -36q36 0 66 21.5t50.5 62.5t36 86.5t24.5 106.5t14.5 109t8 108 t3 89t0.5 66v8q0 46 -4.5 110t-14 149.5t-28 166t-43 150.5t-63.5 112.5t-85 42.5q-54 0 -98.5 -54t-69.5 -130.5t-38 -146t-13 -113.5q-2 -66 -2 -180z" />
<glyph unicode="&#xf5;" horiz-adv-x="894" d="M102 918q0 69 2 124t10.5 135t23.5 141t43.5 127.5t67.5 110t99 71.5t135 28q87 -10 150 -80.5t93.5 -188t48 -235t16.5 -266.5t-4.5 -233.5t-10.5 -182.5q-5 -49 -16.5 -100.5t-35 -108.5t-55 -100.5t-80.5 -72t-108 -28.5q-75 0 -135 36t-98.5 91t-67.5 136.5 t-43.5 155.5t-22.5 166t-10 150t-2 124zM201 1823q0 53 44.5 101t96.5 48q39 0 75 -19.5t56.5 -43t39.5 -43t28 -19.5q34 0 49 15.5t15.5 34t7.5 34t26 15.5q55 0 55 -70q0 -55 -34 -85t-93 -30q-34 0 -62 13t-46 31.5t-33.5 36.5t-32 31t-33.5 13q-20 0 -34.5 -16t-22 -36 t-18 -36t-23.5 -16q-20 0 -40.5 11.5t-20.5 29.5zM219 926q0 -218 19 -371.5t55 -237t80 -119.5t102 -36q36 0 66 21.5t50.5 62.5t36 86.5t24.5 106.5t14.5 109t8 108t3 89t0.5 66v8q0 46 -4.5 110t-14 149.5t-28 166t-43 150.5t-63.5 112.5t-85 42.5q-54 0 -98.5 -54 t-69.5 -130.5t-38 -146t-13 -113.5q-2 -66 -2 -180z" />
<glyph unicode="&#xf6;" horiz-adv-x="894" d="M102 918q0 69 2 124t10.5 135t23.5 141t43.5 127.5t67.5 110t99 71.5t135 28q87 -10 150 -80.5t93.5 -188t48 -235t16.5 -266.5t-4.5 -233.5t-10.5 -182.5q-5 -49 -16.5 -100.5t-35 -108.5t-55 -100.5t-80.5 -72t-108 -28.5q-75 0 -135 36t-98.5 91t-67.5 136.5 t-43.5 155.5t-22.5 166t-10 150t-2 124zM219 926q0 -218 19 -371.5t55 -237t80 -119.5t102 -36q36 0 66 21.5t50.5 62.5t36 86.5t24.5 106.5t14.5 109t8 108t3 89t0.5 66v8q0 46 -4.5 110t-14 149.5t-28 166t-43 150.5t-63.5 112.5t-85 42.5q-54 0 -98.5 -54t-69.5 -130.5 t-38 -146t-13 -113.5q-2 -66 -2 -180zM244 1847q0 20 24.5 41t44.5 21q41 0 67 -29t26 -72q0 -51 -82 -51q-38 0 -59 23.5t-21 66.5zM514 1868q0 19 21.5 40t37.5 21q35 0 56.5 -28.5t21.5 -73.5q0 -32 -18.5 -42.5t-50.5 -10.5t-50 25t-18 69z" />
<glyph unicode="&#xf8;" horiz-adv-x="894" d="M102 918q0 69 2 124t10.5 135t23.5 141t43.5 127.5t67.5 110t99 71.5t135 28q69 -8 125 -58l6 23l4 28q5 29 9 33q18 2 26 2q68 0 68 -71q0 -60 -25 -144q130 -289 80 -999q-5 -49 -16.5 -100.5t-35 -108.5t-55 -100.5t-80.5 -72t-108 -28.5q-102 0 -178 66l-33 -102 q-9 -35 -34 -35q-33 0 -47.5 10t-14.5 37q0 1 1 11t1 11l49 164q-123 211 -123 697zM219 926q0 -369 53 -549q195 661 297 1061q-54 112 -129 112q-54 0 -98.5 -54t-69.5 -130.5t-38 -146t-13 -113.5q-2 -66 -2 -180zM338 233q54 -71 137 -71q36 0 66 21.5t50.5 62.5 t36 86.5t24.5 106.5t14.5 109t8 108t3 89t0.5 66v8q0 79 -12 204t-37 237q-2 -2 -2 -7q-22 -78 -125.5 -450t-163.5 -570z" />
<glyph unicode="&#xf9;" horiz-adv-x="770" d="M104 1599v11q0 21 28 29.5t58 0.5t37 -28q7 -13 9.5 -123.5t2 -264t9.5 -331t29 -326.5t64.5 -248.5t111.5 -99.5q33 0 56 33t31 69t9 70q11 468 -8 1221q7 24 18.5 30.5t40.5 6.5q62 0 64 -41q5 -180 2 -545t2 -557q-1 -43 -1.5 -61t-3 -58t-6.5 -59.5t-12 -53 t-18.5 -50.5t-27 -39t-37.5 -33t-49.5 -19t-63.5 -8q-14 0 -50 4q-147 18 -213 321q-51 237 -69 785l-8 264zM252 1918v3v4.5v5.5q0 20 18 35.5t39 15.5q15 -6 19 -8l133 -86q1 -1 9.5 -6t10.5 -6.5t9 -6.5t10 -8t8 -8.5t6.5 -9.5t3.5 -10t2 -12q0 -20 -14.5 -33.5 t-34.5 -13.5q-17 0 -29 10l-75 57l-105 66l-4.5 3t-2.5 2.5t-2 2.5t-1 3z" />
<glyph unicode="&#xfa;" horiz-adv-x="770" d="M104 1599v11q0 21 28 29.5t58 0.5t37 -28q7 -13 9.5 -123.5t2 -264t9.5 -331t29 -326.5t64.5 -248.5t111.5 -99.5q33 0 56 33t31 69t9 70q11 468 -8 1221q7 24 18.5 30.5t40.5 6.5q62 0 64 -41q5 -180 2 -545t2 -557q-1 -43 -1.5 -61t-3 -58t-6.5 -59.5t-12 -53 t-18.5 -50.5t-27 -39t-37.5 -33t-49.5 -19t-63.5 -8q-14 0 -50 4q-147 18 -213 321q-51 237 -69 785l-8 264zM250 1821q0 6 2 12t3.5 10t6.5 9.5t8 8.5t10 8t9 6.5t10.5 6.5t9.5 6l133 86l19 8q21 0 39 -15.5t18 -35.5v-5q0 -12 -10 -19l-105 -66l-75 -57q-12 -10 -29 -10 q-20 0 -34.5 13.5t-14.5 33.5z" />
<glyph unicode="&#xfb;" horiz-adv-x="770" d="M104 1599v11q0 21 28 29.5t58 0.5t37 -28q7 -13 9.5 -123.5t2 -264t9.5 -331t29 -326.5t64.5 -248.5t111.5 -99.5q33 0 56 33t31 69t9 70q11 468 -8 1221q7 24 18.5 30.5t40.5 6.5q62 0 64 -41q5 -180 2 -545t2 -557q-1 -43 -1.5 -61t-3 -58t-6.5 -59.5t-12 -53 t-18.5 -50.5t-27 -39t-37.5 -33t-49.5 -19t-63.5 -8q-14 0 -50 4q-147 18 -213 321q-51 237 -69 785l-8 264zM158 1806q0 15 2 17q19 36 81 103.5t72 80.5q4 4 15 23.5t23 33t24 13.5q6 0 12 -1.5t12 -4.5t10.5 -5.5t10 -9t8.5 -9t8.5 -10.5t7 -10t7.5 -10.5t6 -9.5 q7 -9 40.5 -54t37.5 -52q3 -3 19.5 -21.5t31 -35.5t16.5 -21q10 -10 10 -31q0 -12 -7 -20.5t-19 -8.5q-11 0 -33 11q-32 33 -85.5 100.5t-76.5 93.5q-13 -13 -54.5 -68t-79 -97t-54.5 -42q-19 0 -32 12.5t-13 32.5z" />
<glyph unicode="&#xfc;" horiz-adv-x="770" d="M104 1599v11q0 21 28 29.5t58 0.5t37 -28q7 -13 9.5 -123.5t2 -264t9.5 -331t29 -326.5t64.5 -248.5t111.5 -99.5q33 0 56 33t31 69t9 70q11 468 -8 1221q7 24 18.5 30.5t40.5 6.5q62 0 64 -41q5 -180 2 -545t2 -557q-1 -43 -1.5 -61t-3 -58t-6.5 -59.5t-12 -53 t-18.5 -50.5t-27 -39t-37.5 -33t-49.5 -19t-63.5 -8q-14 0 -50 4q-147 18 -213 321q-51 237 -69 785l-8 264zM180 1847q0 20 25 41t45 21q41 0 66.5 -29t25.5 -72q0 -51 -82 -51q-38 0 -59 23.5t-21 66.5zM451 1868q0 19 21.5 40t37.5 21q35 0 56.5 -28.5t21.5 -73.5 q0 -32 -19 -42.5t-51 -10.5t-49.5 25t-17.5 69z" />
<glyph unicode="&#xfd;" horiz-adv-x="890" d="M102 1495q3 35 50 35q65 0 86 -43q16 -45 78 -254t108 -311q9 7 63 125.5t102.5 233.5t45.5 116q4 10 9 30t10 33t13.5 27t22.5 21.5t35 7.5q20 -1 31.5 -3.5t20.5 -11t9 -24.5v-15q-34 -94 -149.5 -324.5t-149.5 -359.5l-36 -780q-2 -41 -70 -37h-4q-13 1 -19.5 2.5 t-15.5 8t-12 18.5q0 3 1 12.5t1 17.5q2 42 10 235t14 344t6 187l-174 474q-6 13 -36 92.5t-35 93.5q-15 34 -15 49zM264 1690q0 7 1.5 13t6 12l7.5 10t11 9.5t11 7.5t12.5 8t10.5 7l133 86l18 8q21 0 39 -15.5t18 -35.5v-5q0 -12 -10 -19l-104 -66l-76 -57q-13 -11 -29 -11 q-20 0 -34.5 14t-14.5 34z" />
<glyph unicode="&#xff;" horiz-adv-x="890" d="M102 1495q3 35 50 35q65 0 86 -43q16 -45 78 -254t108 -311q9 7 63 125.5t102.5 233.5t45.5 116q4 10 9 30t10 33t13.5 27t22.5 21.5t35 7.5q20 -1 31.5 -3.5t20.5 -11t9 -24.5v-15q-34 -94 -149.5 -324.5t-149.5 -359.5l-36 -780q-2 -41 -70 -37h-4q-13 1 -19.5 2.5 t-15.5 8t-12 18.5q0 3 1 12.5t1 17.5q2 42 10 235t14 344t6 187l-174 474q-6 13 -36 92.5t-35 93.5q-15 34 -15 49zM250 1737q0 20 24.5 40.5t44.5 20.5q41 0 67 -28.5t26 -71.5q0 -51 -82 -51q-38 0 -59 23.5t-21 66.5zM520 1757q0 19 22 40.5t38 21.5q35 0 56 -29t21 -74 q0 -32 -18.5 -42.5t-50.5 -10.5t-50 25t-18 69z" />
<glyph unicode="&#x152;" horiz-adv-x="1046" d="M104 946q-2 102 5 191t30 176t60 148.5t99.5 99.5t145.5 38q45 0 95 -24q139 12 210.5 6.5t91 -16.5t19.5 -35q0 -12 -7 -29.5t-17 -21.5h-224q-14 0 -14 -17q0 -96 5.5 -191.5t14.5 -213t13 -195.5q14 -4 62 -4.5t110 1t65 1.5q40 -1 64 -41q23 -39 3 -64 q-13 -16 -44 -16h-260l4 -479q13 -3 96.5 2.5t148 -4t64.5 -49.5q0 -47 -39 -53h-10q-195 -16 -274 -9q-53 -40 -111 -43q-4 0 -12.5 -1t-12.5 -1q-126 0 -201.5 73t-113.5 218q-7 31 -15 74.5t-20 127t-20.5 166.5t-10.5 185zM220 1033q-5 -115 4.5 -227t21 -194t22.5 -125 q7 -31 22 -70.5t38.5 -86t57 -79.5t69.5 -36h24q20 0 45 14v463q0 146 -14 386.5t-14 387.5v13q-19 8 -47 8h-17q-73 -7 -121.5 -73t-67 -166t-23.5 -215z" />
<glyph unicode="&#x153;" horiz-adv-x="1054" d="M102 918q0 69 2 124t10.5 135t23.5 141t43.5 127.5t67.5 110t99 71.5t135 28q33 -6 66 -19h319q9 0 31.5 -16.5t24.5 -24.5q2 -4 2 -10q0 -28 -29 -43.5t-59 -15.5h-246l10 -680l221 33h11q55 0 57 -34q2 -31 -34 -55q-20 -14 -46 -18l-205 -31l-6 -534q18 -2 107 -2 q33 0 76 4t68 6.5t49.5 0t36 -16.5t13.5 -41q1 -22 -55 -36t-130.5 -16.5t-146.5 0.5q-60 -47 -137 -47q-75 0 -135 36t-98.5 91t-67.5 136.5t-43.5 155.5t-22.5 166t-10 150t-2 124zM219 926q0 -218 19 -371.5t55 -237t80 -119.5t102 -36h21l-23 1382q-15 6 -33 6 q-54 0 -98.5 -54t-69.5 -130.5t-38 -146t-13 -113.5q-2 -66 -2 -180z" />
<glyph unicode="&#x178;" horiz-adv-x="802" d="M117 1407q-32 70 5 98q26 20 55 4q16 -9 22 -26l233 -492l137 543q4 27 36.5 37t63.5 -4.5t31 -46.5v-9l-202 -622l71 -832q0 -45 -55 -45q-53 0 -61 39q-10 86 -22.5 271.5t-28.5 335.5t-42 251q-194 387 -243 498zM139 1741q0 19 25 40t45 21q41 0 66.5 -28.5 t25.5 -71.5q0 -51 -82 -51q-38 0 -59 23.5t-21 66.5zM410 1761q0 19 21.5 40.5t37.5 21.5q35 0 56.5 -29t21.5 -74q0 -32 -19 -42.5t-51 -10.5t-49.5 25t-17.5 69z" />
<glyph unicode="&#x2000;" horiz-adv-x="1038" />
<glyph unicode="&#x2001;" horiz-adv-x="2077" />
<glyph unicode="&#x2002;" horiz-adv-x="1038" />
<glyph unicode="&#x2003;" horiz-adv-x="2077" />
<glyph unicode="&#x2004;" horiz-adv-x="692" />
<glyph unicode="&#x2005;" horiz-adv-x="519" />
<glyph unicode="&#x2006;" horiz-adv-x="346" />
<glyph unicode="&#x2007;" horiz-adv-x="346" />
<glyph unicode="&#x2008;" horiz-adv-x="259" />
<glyph unicode="&#x2009;" horiz-adv-x="415" />
<glyph unicode="&#x200a;" horiz-adv-x="115" />
<glyph unicode="&#x2010;" horiz-adv-x="1167" d="M102 772q0 46 35 51q120 -3 343 5t311 8h227q28 0 37.5 -16.5t9.5 -45.5q0 -14 -7 -22.5t-21 -11t-26 -2.5t-29 1.5t-24 1.5l-647 -10l-151 -24h-6q-25 0 -38.5 19.5t-13.5 45.5z" />
<glyph unicode="&#x2011;" horiz-adv-x="1167" d="M102 772q0 46 35 51q120 -3 343 5t311 8h227q28 0 37.5 -16.5t9.5 -45.5q0 -14 -7 -22.5t-21 -11t-26 -2.5t-29 1.5t-24 1.5l-647 -10l-151 -24h-6q-25 0 -38.5 19.5t-13.5 45.5z" />
<glyph unicode="&#x2012;" horiz-adv-x="1167" d="M102 772q0 46 35 51q120 -3 343 5t311 8h227q28 0 37.5 -16.5t9.5 -45.5q0 -14 -7 -22.5t-21 -11t-26 -2.5t-29 1.5t-24 1.5l-647 -10l-151 -24h-6q-25 0 -38.5 19.5t-13.5 45.5z" />
<glyph unicode="&#x2013;" horiz-adv-x="1228" d="M102 772q0 46 37 51q128 -3 365 5t331 8h241q30 0 40 -16.5t10 -45.5q0 -14 -7.5 -22.5t-22.5 -11t-27.5 -2.5t-30.5 1.5t-26 1.5l-688 -10l-160 -24h-7q-26 0 -40.5 19.5t-14.5 45.5z" />
<glyph unicode="&#x2014;" horiz-adv-x="2252" d="M102 772q0 46 74 51q256 -3 730 5t661 8h483q60 0 80 -16.5t20 -45.5q0 -14 -15 -22.5t-44.5 -11t-55 -2.5t-62 1.5t-51.5 1.5l-1376 -10l-321 -24h-12q-54 0 -82.5 19.5t-28.5 45.5z" />
<glyph unicode="&#x2018;" horiz-adv-x="329" d="M102 883v692q0 21 15 42t35 21q28 0 51 -26q24 -405 24 -721q0 -47 -49 -47q-21 0 -48.5 10t-27.5 29z" />
<glyph unicode="&#x2019;" horiz-adv-x="329" d="M102 1591q0 47 50 47q21 0 48 -10t27 -29v-692q0 -21 -14.5 -42t-34.5 -21q-28 0 -51 26q-25 421 -25 721z" />
<glyph unicode="&#x201a;" horiz-adv-x="329" d="M102 391q0 47 50 47q21 0 48 -10t27 -29v-692q0 -21 -14.5 -42t-34.5 -21q-28 0 -51 26q-25 421 -25 721z" />
<glyph unicode="&#x201c;" horiz-adv-x="565" d="M102 883v692q0 21 15 42t35 21q28 0 51 -26q24 -405 24 -721q0 -47 -49 -47q-21 0 -48.5 10t-27.5 29zM346 899v606q0 17 14 36.5t33 19.5q24 0 47 -23q23 -340 23 -633q0 -41 -45 -41q-21 0 -46.5 8.5t-25.5 26.5z" />
<glyph unicode="&#x201d;" horiz-adv-x="565" d="M102 1577q0 41 45 41q21 0 46.5 -8.5t25.5 -26.5v-606q0 -17 -14 -36t-33 -19q-25 0 -47 22q-23 340 -23 633zM338 1591q0 47 49 47q21 0 48.5 -10t27.5 -29v-692q0 -21 -14.5 -42t-34.5 -21q-29 0 -52 26q-24 405 -24 721z" />
<glyph unicode="&#x201e;" horiz-adv-x="565" d="M102 348q0 41 45 41q21 0 46.5 -8.5t25.5 -26.5v-606q0 -17 -14 -36t-33 -19q-25 0 -47 22q-23 340 -23 633zM338 362q0 48 49 48q21 0 48.5 -10t27.5 -29v-693q0 -21 -14.5 -42t-34.5 -21q-28 0 -52 27q-24 405 -24 720z" />
<glyph unicode="&#x202f;" horiz-adv-x="415" />
<glyph unicode="&#x2039;" horiz-adv-x="692" d="M111 756l403 270q32 13 54.5 -2.5t20.5 -43t-30 -46.5l-350 -213l321 -240q25 -23 25.5 -48t-23.5 -39.5t-55 -0.5l-352 269q-34 52 -14 94z" />
<glyph unicode="&#x203a;" horiz-adv-x="692" d="M103 980.5q-2 27.5 20.5 43t54.5 2.5l404 -270q20 -41 -15 -94l-352 -269q-31 -14 -55 0.5t-23.5 39.5t25.5 48l321 240l-350 213q-28 19 -30 46.5z" />
<glyph unicode="&#x205f;" horiz-adv-x="519" />
<glyph unicode="&#x20ac;" horiz-adv-x="966" d="M102 991q0 44 23 49q29 -2 88 -2q11 73 28.5 141.5t50 143t73.5 129t102 90t133 35.5h14q71 -3 126 -40.5t55 -106.5q0 -46 -35 -46q-23 1 -42.5 14.5t-31.5 30t-33.5 32t-46.5 18.5l-4 1q-4 1 -8 1q-80 0 -148.5 -124.5t-105.5 -314.5q203 11 225 11h152q33 0 33 -60 q0 -17 -9 -25t-18 -8.5t-25 1.5t-20 2l-354 -9q-13 -115 -15 -155q33 0 79 -2t50 -2h21q123 0 123 -58q0 -30 -43 -30l-234 6q0 -108 16 -201t49.5 -169t90 -121t131.5 -48h10q41 0 66.5 19.5t37.5 48t22.5 56.5t31.5 47.5t55 19.5q22 0 35.5 -12.5t13.5 -33.5 q-1 -17 -4 -26t-11.5 -23.5t-14.5 -29.5q-71 -152 -230 -152h-18q-75 3 -135.5 31.5t-102 77t-71.5 107t-47 130t-25 139t-10 140.5h-19q-30 6 -43.5 19.5t-13.5 39.5q0 9 4.5 14t19.5 11q6 2 52 2q4 80 8 121v22l-64 -14h-4q-16 0 -24.5 19t-8.5 44z" />
<glyph unicode="&#x25fc;" horiz-adv-x="1658" d="M0 0v1659h1659v-1659h-1659z" />
</font>
</defs>
</svg>
